<?xml version="1.0" encoding="utf-8"?>
<!-- Generator: Adobe Illustrator 24.3.0, SVG Export Plug-In . SVG Version: 6.00 Build 0)  -->
<svg version="1.1" xmlns="http://www.w3.org/2000/svg" xmlns:xlink="http://www.w3.org/1999/xlink" x="0px" y="0px"
	 viewBox="0 0 681.61 533.78" style="enable-background:new 0 0 681.61 533.78;" xml:space="preserve">
<style type="text/css">
	.st0{fill:#00913E;}
	.st1{fill:#0154D5;}
	.st2{fill:#EE8019;}
	.st3{fill:#F0BC00;}
	.st4{fill:#E679A6;}
	.st5{fill:#E9E7C4;}
	.st6{fill:#F5C200;}
	.st7{fill:#028B3F;}
	.st8{fill:#DC0816;}
	.st9{fill:#EA7AAC;}
	.st10{fill:#020304;}
	.st11{fill:#049DFF;}
	.st12{clip-path:url(#SVGID_2_);}
	.st13{fill:#1026B0;}
	.st14{fill:#1E1232;}
	.st15{fill:#E49924;}
	.st16{fill:#0491FF;}
	.st17{fill:none;stroke:#62FC06;stroke-width:0.3063;stroke-miterlimit:10;}
	.st18{fill:none;stroke:#000000;stroke-width:8.1291;stroke-miterlimit:10;}
	.st19{fill:none;stroke:#000000;stroke-width:0.5314;stroke-miterlimit:10;}
	.st20{fill:none;stroke:#000000;stroke-width:7.7722;stroke-miterlimit:10;}
	.st21{fill:#E7E5C2;}
	.st22{fill:#025BC7;}
	.st23{clip-path:url(#SVGID_4_);}
	.st24{clip-path:url(#SVGID_6_);}
	.st25{fill:#5B1A0E;}
	.st26{fill:#FFFFFF;}
	.st27{fill:#F69225;}
	.st28{fill:#EFEDCA;}
	.st29{fill:#561309;}
	.st30{fill:none;stroke:#000000;stroke-width:10.905;stroke-miterlimit:10;}
	.st31{fill:#EDBCD2;}
	.st32{clip-path:url(#SVGID_8_);}
	.st33{fill:none;stroke:#FBF3A0;stroke-width:1.296;stroke-miterlimit:10;}
	.st34{fill:#1F1332;}
	.st35{fill:#E69B23;}
	.st36{fill:#F08C25;}
	.st37{fill:#5D1A16;}
	.st38{fill:none;stroke:#5AFD06;stroke-width:0.9072;stroke-miterlimit:10;}
	.st39{fill:#F3B5A9;}
	.st40{fill:#E4E1BF;}
	.st41{fill:#F3AD17;}
	.st42{clip-path:url(#SVGID_10_);}
	.st43{fill:#EE6807;}
	.st44{clip-path:url(#SVGID_12_);}
	.st45{fill:#C4681F;}
	.st46{fill:#711C13;}
	.st47{clip-path:url(#SVGID_14_);}
	.st48{clip-path:url(#SVGID_14_);fill:#EDBCD2;}
	.st49{clip-path:url(#SVGID_16_);}
	.st50{fill:#DC0816;stroke:#000000;stroke-width:7.8223;stroke-miterlimit:10;}
	.st51{fill:#DC0816;stroke:#000000;stroke-width:9.4667;stroke-miterlimit:10;}
	.st52{fill:#DC0C18;}
	.st53{fill:#F7B821;}
	.st54{clip-path:url(#SVGID_18_);}
	.st55{fill:none;stroke:#05FF28;stroke-miterlimit:10;}
	.st56{fill:#CA6820;}
	.st57{display:none;fill:none;stroke:#000000;stroke-width:1.5;stroke-linecap:square;stroke-miterlimit:10;}
	.st58{fill:none;stroke:#000000;stroke-width:1.5;stroke-linecap:square;stroke-miterlimit:10;}
	.st59{fill:#008B3F;}
	.st60{fill:#F6C200;}
	.st61{fill:#B76032;}
	.st62{fill:#010101;}
	.st63{fill:#295CA8;}
	.st64{fill:#FEF1E2;}
	.st65{fill:#F39126;}
	.st66{fill:#EDEBC8;}
	.st67{fill:#1D1D1B;}
	.st68{fill:#EC79AC;}
	.st69{fill:#F5A67D;}
	.st70{filter:url(#Adobe_OpacityMaskFilter);}
	.st71{mask:url(#SVGID_19_);}
	.st72{fill:#00913F;}
	.st73{fill:#6C2F10;}
	.st74{fill:#2D57A4;}
	.st75{fill:#893E13;}
	.st76{fill:none;}
</style>
<g id="KUEBIKO_BG">
</g>
<g id="KUEBIKO_FARBE">
</g>
<g id="FIREWORK_BG_1_">
</g>
<g id="FIREWORK_FARBE">
</g>
<g id="FIREWORK">
</g>
<g id="PP_FARBE">
</g>
<g id="PAP">
	<g>
		<path class="st7" d="M91.46,0C91.46,0,0,0,0,91.18V442.6c0,0,0,91.19,91.46,91.19h498.7c0,0,91.46,0,91.46-91.19V91.18
			c0,0,0-91.18-91.46-91.18H91.46z"/>
		<path class="st3" d="M13.65,149.26c-3.15-18.41-2.91-37.05,0.71-55.38c4.26-21.56,13.51-36.83,26.76-44.17
			c2.79-1.55,6.62-3.16,10.86-3.56c9.26-15.65,30.24-21.41,46.9-18.67l-0.97,5.92c-17.5-2.87-31.79,4.03-38.99,13.32
			c6.05,1.72,10.66,6.82,11.14,12.51c0.3,3.53-1.27,7.28-4.09,9.79c-2.56,2.27-5.79,3.22-8.84,2.58c-3.02-0.62-5.44-2.47-7-5.35
			c-1.97-3.63-2.36-8.82-1.1-13.44c-1.89,0.56-3.61,1.37-5.01,2.14C29.3,63.12,22.97,81.26,20.25,95.05
			c-3.48,17.61-3.71,35.51-0.68,53.2L13.65,149.26z M55.64,52.18c-0.14,0.32-0.27,0.63-0.4,0.95c-1.31,3.37-1.25,7.69,0.16,10.28
			c0.71,1.31,1.67,2.07,2.94,2.34c1.19,0.25,2.51-0.19,3.64-1.19c1.41-1.25,2.24-3.14,2.1-4.79c-0.29-3.41-3.53-6.61-7.54-7.43
			C56.25,52.27,55.94,52.22,55.64,52.18z"/>
		<path class="st3" d="M155.47,519.52c-5.36-3.83-5.85-8.98-6.24-13.11c-0.4-4.19-0.77-6.66-3.76-8.8s-5.45-1.69-9.54-0.72
			c-4.04,0.96-9.07,2.16-14.42-1.67c-5.36-3.83-5.85-8.98-6.24-13.11c-0.4-4.19-0.77-6.66-3.76-8.8c-2.99-2.14-5.45-1.69-9.54-0.71
			c-4.04,0.96-9.06,2.16-14.42-1.67c-5.36-3.83-5.85-8.98-6.24-13.11c-0.4-4.19-0.77-6.66-3.76-8.8c-2.99-2.14-5.45-1.69-9.54-0.72
			c-4.04,0.96-9.07,2.16-14.42-1.68c-5.36-3.83-5.85-8.98-6.24-13.11c-0.4-4.19-0.77-6.66-3.76-8.8c-2.99-2.14-5.45-1.69-9.54-0.72
			c-4.04,0.96-9.07,2.16-14.43-1.68l3.49-4.88c2.99,2.14,5.45,1.69,9.54,0.72c4.04-0.96,9.07-2.16,14.42,1.68
			c5.36,3.83,5.85,8.98,6.24,13.11c0.4,4.19,0.77,6.66,3.76,8.8c2.99,2.14,5.45,1.69,9.54,0.72c4.04-0.96,9.07-2.16,14.42,1.68
			s5.85,8.98,6.24,13.11c0.4,4.19,0.77,6.66,3.76,8.8c2.99,2.14,5.45,1.69,9.54,0.72c4.04-0.96,9.06-2.16,14.42,1.67
			c5.36,3.83,5.85,8.98,6.24,13.11c0.4,4.19,0.77,6.66,3.76,8.8c2.99,2.14,5.45,1.69,9.54,0.72c4.04-0.96,9.06-2.16,14.42,1.67
			c5.36,3.83,5.84,8.98,6.24,13.11c0.4,4.19,0.77,6.66,3.76,8.8L155.47,519.52z"/>
		<path class="st3" d="M662.23,160.58c-3.29-5.7-1.61-10.59-0.26-14.52c1.37-3.98,2.05-6.38,0.22-9.57
			c-1.84-3.18-4.26-3.79-8.39-4.6c-4.08-0.79-9.15-1.78-12.44-7.49c-3.29-5.7-1.61-10.59-0.26-14.52c1.37-3.98,2.05-6.38,0.21-9.57
			c-1.84-3.18-4.26-3.79-8.39-4.6c-4.08-0.79-9.15-1.78-12.44-7.48c-3.29-5.71-1.61-10.59-0.26-14.52c1.37-3.98,2.05-6.38,0.21-9.57
			c-1.84-3.18-4.26-3.79-8.39-4.6c-4.08-0.79-9.15-1.78-12.44-7.49c-3.29-5.71-1.62-10.59-0.27-14.52c1.37-3.98,2.05-6.38,0.21-9.57
			c-1.84-3.18-4.26-3.79-8.39-4.6c-4.08-0.79-9.15-1.78-12.44-7.49l5.2-3c1.84,3.18,4.26,3.79,8.39,4.6
			c4.08,0.79,9.15,1.78,12.44,7.49c3.29,5.71,1.61,10.59,0.26,14.52c-1.37,3.98-2.05,6.39-0.21,9.57c1.84,3.18,4.26,3.79,8.39,4.6
			c4.08,0.79,9.15,1.78,12.44,7.49c3.29,5.71,1.61,10.59,0.26,14.52c-1.37,3.98-2.05,6.38-0.21,9.57c1.84,3.18,4.26,3.79,8.39,4.6
			c4.08,0.79,9.15,1.78,12.44,7.48c3.29,5.7,1.61,10.59,0.26,14.52c-1.37,3.98-2.05,6.38-0.21,9.57c1.84,3.18,4.26,3.79,8.39,4.6
			c4.08,0.79,9.15,1.78,12.44,7.49c3.29,5.7,1.61,10.59,0.26,14.52c-1.37,3.98-2.05,6.38-0.22,9.57L662.23,160.58z"/>
		<path class="st3" d="M599.89,510.17l-3.65-4.76c11.13-8.54,18.51-18.02,21.93-28.18c1.73-5.15,2.32-10.49,1.85-15.54
			c-4.91-1-9.59-3.03-13.61-6.08c-3.46-2.62-5.54-5.4-6.36-8.48c-1.05-3.96,0.44-9.16,4.76-11.02c3.93-1.69,8.61-0.09,12.53,4.29
			c3.93,4.39,6.6,9.94,7.91,15.99c6.33,0.42,12.8-1.16,18.06-4.78c9.8-6.74,14.5-19.93,11.17-31.35l5.76-1.68
			c4.03,13.83-1.66,29.8-13.53,37.97c-6.03,4.15-13.35,6.08-20.63,5.85c0.35,5.5-0.36,11.23-2.22,16.75
			C620.05,490.45,611.99,500.89,599.89,510.17z M608.02,441.45c-0.3,0-0.58,0.05-0.84,0.16c-1.12,0.48-1.76,2.37-1.33,3.96
			c0.46,1.74,1.83,3.46,4.19,5.24c2.63,2,5.61,3.46,8.75,4.39c-1.21-4.08-3.2-7.8-5.91-10.83
			C611.46,442.82,609.54,441.45,608.02,441.45z"/>
		<g>
			<g>
				<path d="M548.36,93.7c0,0,98.99,96.56,27.31,264.84s-264.52,144-281.54,138.98c-17.02-5.03-126.4-46.17-143.41-93.71
					l175.78-62.76c0,0,105.29-127.26,105.29-131.9c0-4.65-12.36-91.84-12.36-91.84l102.9-29.99L548.36,93.7z"/>
				<path class="st16" d="M340.8,504.1c-25.52,0-43.41-3.02-47.38-4.2c-9.73-2.87-41.42-14.7-72.18-31.1
					c-40.94-21.84-65.46-43.43-72.88-64.16l-0.84-2.36l177.49-63.37c40.37-48.8,100.61-122.71,104.27-130.14
					c-0.37-5.68-7.49-57.06-12.32-91.13l-0.3-2.14l105.62-30.79l27.35,6.72l0.49,0.48c1.03,1,25.35,25.07,41.15,70.28
					c9.27,26.51,13.6,54.79,12.89,84.04c-0.89,36.5-9.7,74.62-26.17,113.29c-16.6,38.97-41.04,70.75-72.64,94.44
					c-25.67,19.25-56.07,33.21-90.34,41.49C387.47,502.09,361.6,504.1,340.8,504.1z M153.99,405.28
					c19.09,44.91,122.26,84.34,140.85,89.83c7.01,2.07,58.75,10.03,118.98-4.53c33.61-8.13,63.39-21.8,88.52-40.63
					c30.88-23.15,54.78-54.24,71.04-92.39c16.2-38.03,24.87-75.46,25.77-111.27c0.72-28.61-3.49-56.27-12.52-82.19
					c-12.08-34.7-30.85-59.41-39.53-68.13l-24.71-6.07l-100.17,29.2c2.18,15.41,12.08,85.62,12.08,90.05c0,1.6,0,3.79-53.21,69.27
					c-26.03,32.03-52.4,63.91-52.66,64.23l-0.44,0.53l-0.65,0.23L153.99,405.28z"/>
			</g>
			<g>
				<path d="M404.36,51.56c0,0,38.79-13.67,45.21-9.77c6.42,3.91,8.93,16.74,24.56,9.77c15.63-6.98-8.65-15.07-8.65-15.07
					l15.63-6.14l25.4,19.81c0,0,6.28-3.49,9.77,0c3.49,3.49,17.3,12.56,12.28,20.37l19.81,23.16c0,0-28.19,8.65-23.72,13.12
					c4.47,4.47,17.44,16.6,1.95,19.53c-15.49,2.93-18.7-2.74-22.88-14.21s-30.42,17.56-51.63,17.56l-40.74-37.3l-18.4-33.02
					L404.36,51.56z"/>
				<path class="st16" d="M452.08,132.2h-0.97l-41.76-38.23l-0.2-0.35l-19.5-35.02l13.57-9.29l0.31-0.11
					c9.36-3.3,40.45-13.74,47.34-9.55c2.13,1.3,3.8,3.29,5.42,5.22c3.89,4.65,7.25,8.67,16.82,4.4c3.02-1.35,3.78-2.49,3.76-2.9
					c-0.09-1.83-5.9-5.41-12.19-7.51l-6.53-2.18l23.36-9.18l25.3,19.74c3.18-1.31,7.99-2.08,11.21,1.15
					c0.54,0.54,1.44,1.3,2.48,2.18c5.03,4.24,14.1,11.88,11.02,19.61l21.2,24.79l-3.64,1.12c-10.33,3.17-19.92,7.34-22.11,9.53
					c5.35,5.31,10.9,11.44,9.19,17.01c-0.96,3.14-4.03,5.22-9.12,6.18c-17.34,3.28-21.43-4.13-25.7-15.81
					c-0.29-0.79-0.6-0.9-0.74-0.95c-2.43-0.85-9.51,3.39-15.76,7.13C475.18,124.98,463.12,132.2,452.08,132.2z M413.32,90.82
					l39.71,36.35c9.45-0.42,20.41-6.98,29.26-12.28c8.92-5.34,15.37-9.2,20-7.56c1.22,0.43,2.86,1.47,3.76,3.94
					c3.88,10.64,6.19,15.23,20.07,12.61c3.03-0.57,4.9-1.54,5.27-2.73c0.97-3.15-5.75-9.82-7.96-12.01l-0.57-0.57
					c-1.03-1.03-1.43-2.41-1.09-3.77c1.14-4.6,13.16-9.36,22.23-12.35l-18.57-21.71l1.01-1.56c2.72-4.24-3.29-9.85-9.15-14.79
					c-1.13-0.95-2.11-1.78-2.8-2.46c-2.07-2.06-6.74,0.39-6.79,0.42l-1.45,0.8L480.69,33.2l-8.46,3.32c4.46,2.14,9.43,5.45,9.64,9.6
					c0.15,3.06-2.11,5.66-6.72,7.72c-13.03,5.81-18.62-0.87-22.7-5.75c-1.42-1.69-2.75-3.29-4.18-4.16
					c-2.58-1.57-19.65,1.76-42.77,9.88l-9.26,6.34L413.32,90.82z"/>
			</g>
			<g>
				<path d="M119.34,115.23c0,0,13.77-27.12,18.23-27.12c4.47,0,12.28-5.3,12.28-9.49c0,0,11.44-18.98,18.7-21.21
					c7.26-2.23,18.14-8.93,19.53-14.51s18.7-14.23,21.77-3.63l13.67-5.02l1.95,6.69L213.2,58.81c0,0-2.79-6.42-6.42-6.42
					s-22.65,14.23-16.77,17.58c5.88,3.35,14.95-11.58,17.88,3.35l-19.33,32.9l-14.99,25.15L119.34,115.23z"/>
				<path class="st16" d="M174.72,134.33l-58.97-17.55l1.36-2.67c0.04-0.07,3.52-6.93,7.52-13.7c8.05-13.65,10.9-14.79,12.94-14.79
					c3.47,0,9.78-4.51,9.78-6.99v-0.7l0.36-0.6c1.22-2.03,12.16-19.86,20.1-22.31c7.15-2.2,16.79-8.51,17.84-12.73
					c1.25-4.99,9.96-10.41,16.95-10.54c3.85-0.06,6.88,1.49,8.59,4.36l13.98-5.13l3.04,10.4L212.7,63.94l-1.8-4.13
					c-1.02-2.32-3-4.92-4.13-4.92c-0.81,0.13-4.58,2.15-8.89,5.71c-4.47,3.68-6.18,6.29-6.45,7.28c1.17,0.4,3.25-0.67,5.09-1.63
					c2.82-1.46,6.01-3.1,9.09-1.62c2.35,1.14,3.86,3.75,4.73,8.21l0.18,0.93l-19.81,33.72L174.72,134.33z M122.94,113.7l49.48,14.73
					l14-23.48l18.83-32.05c-0.71-3.01-1.55-3.63-1.81-3.76c-0.84-0.41-2.93,0.68-4.62,1.56c-2.94,1.52-6.6,3.41-10.04,1.45
					c-1.98-1.13-2.79-3.18-2.18-5.49c1.69-6.37,15.94-16.76,20.19-16.76c2.86,0,5.1,2.14,6.61,4.23l9.36-13.61l-0.87-2.98
					l-13.68,5.02l-0.75-2.58c-0.41-1.41-1.37-3.27-4.75-3.21c-5.45,0.1-11.67,4.7-12.19,6.75c-1.7,6.81-13.63,13.96-21.23,16.29
					c-4.51,1.39-12.66,12.54-16.98,19.6c-0.43,3.38-3.53,6.14-5.43,7.54c-2.34,1.72-5.92,3.56-9.04,3.66
					C135.41,91.89,128.55,103,122.94,113.7z"/>
			</g>
			<g>
				<path class="st13" d="M199.52,148.71c0,0,33.49,1.55,41.86-8.87c0,0-9.77-6.05-1.67-14.14c8.09-8.09,27.91-13.02,27.91-2.05
					s12.91,6.77,44.41-1.27l17.73,29.92c0,0,4.79,36.88,4.09,36.19c-0.7-0.7-47.07,20.37-47.07,20.37l-39.26,13.4l-51.35,0.93
					l-27.26-27.26l-15.72-25.21l22.88-39.34l13.93,3.44L199.52,148.71z"/>
				<path class="st16" d="M195.16,225.7l-28.21-28.21l-16.67-26.73l24.58-42.26l16.68,4.11l9.33,13.64
					c8.99,0.27,28.93-0.45,36.75-6.28c-1.51-1.5-3.23-3.81-3.57-6.74c-0.37-3.22,0.93-6.35,3.88-9.3
					c6.21-6.21,19.66-11.26,27.04-8.2c3.31,1.37,5.14,4.19,5.14,7.92c0,2.18,0.6,2.9,1.05,3.25c3.3,2.56,15.95-0.7,33.47-5.21
					c2.15-0.55,4.41-1.13,6.77-1.74l1.81-0.46l18.95,31.97l0.07,0.51c0.01,0.09,1.18,9.09,2.27,18.02
					c2.41,19.79,2.41,19.79,0.48,20.74l-1.61,0.79l-0.27-0.26c-5.71,2.08-30.05,12.94-45.29,19.87l-0.23,0.09l-39.63,13.52
					l-0.39,0.01L195.16,225.7z M170.89,194.36l26.3,26.3l49.9-0.9l38.77-13.23c1.22-0.55,12.23-5.55,23.18-10.41
					c12.78-5.67,19.03-8.42,22.29-9.53c-0.45-5.44-2.55-22.36-3.99-33.46l-16.51-27.87c-1.71,0.44-3.35,0.86-4.95,1.27
					c-21.67,5.58-32.55,8.38-37.78,4.32c-1.98-1.54-2.99-3.96-2.99-7.21c0-1.72-0.61-2.71-2.05-3.31
					c-4.88-2.02-16.17,1.71-21.59,7.12c-1.81,1.81-2.64,3.56-2.45,5.19c0.33,2.87,3.64,5.03,3.67,5.05l2.4,1.49l-1.77,2.2
					c-8.91,11.09-40.37,9.97-43.92,9.8l-1.24-0.06l-9.67-14.13l-11.19-2.76l-21.19,36.42L170.89,194.36z M332.08,190.25
					c0.01,0.01,0.01,0.01,0.02,0.02L332.08,190.25z"/>
			</g>
			<g>
				<path d="M88.2,212.76c0,0,11.46-78.7,35.82-103.06c0,0,3.98,4.89,11.28,2.44c7.3-2.44,11.39-6.54,14.37-16.4
					c2.98-9.86,16.34-7.26,13.94,0s-7.61,13.95,2.25,11.91c9.86-2.05,24.17-4.65,24.17-4.65s-6.53,11.88,0,15.43
					s17.88-3.52,17.88,14.9s-11.72,19.91-23.26,15.44c-11.53-4.47-17.02,37.4-11.53,51.72l-36.09,6.7L88.2,212.76z"/>
				<path class="st16" d="M85.26,215.61l0.47-3.21c0.47-3.25,11.86-79.81,36.53-104.47l1.96-1.96l1.75,2.15
					c0.1,0.12,3.06,3.49,8.54,1.65c5.86-1.96,9.83-5,12.77-14.75c1.26-4.17,4.25-7.07,8.21-7.97c3.48-0.79,7.08,0.19,9.16,2.48
					c1.7,1.88,2.19,4.42,1.33,6.99c-0.54,1.62-1.2,3.21-1.79,4.61c-0.58,1.38-1.41,3.35-1.59,4.38c0.45,0.02,1.29-0.01,2.75-0.32
					c9.78-2.03,24.08-4.64,24.23-4.66l5.17-0.94l-2.53,4.6c-0.91,1.67-3.31,7.14-2.39,10.28c0.24,0.82,0.67,1.36,1.39,1.75
					c1.42,0.77,3.42,0.88,5.54,0.99c5.76,0.31,13.64,0.73,13.64,16.1c0,8.47-2.35,14.38-7,17.56c-4.77,3.27-11.58,3.35-19.66,0.22
					c-0.69-0.27-1.5-0.35-2.72,0.87c-6.61,6.58-10.05,35.96-5.58,47.63l1.07,2.8l-39.22,7.27L85.26,215.61z M124.21,113.14
					c-19.75,22.26-30.62,82.19-33.02,96.75l45.46-5.19l33.25-6.17c-1.56-6.21-1.87-15.43-0.79-25.05
					c0.64-5.66,2.73-19.43,8.39-25.07c2.38-2.37,5.24-3.08,8.05-1.99c6.39,2.47,11.73,2.59,15.03,0.32
					c3.2-2.19,4.82-6.71,4.82-13.43c0-10.63-3.54-10.82-8.91-11.11c-2.58-0.14-5.25-0.28-7.66-1.59c-1.88-1.02-3.19-2.66-3.8-4.74
					c-0.91-3.1-0.13-6.76,0.84-9.58c-5.03,0.94-13.21,2.48-19.5,3.79c-2.69,0.56-6.02,0.92-7.82-1.26
					c-1.99-2.42-0.59-5.76,1.03-9.63c0.58-1.38,1.18-2.81,1.66-4.25c0.38-1.14,0.01-1.72-0.29-2.06c-0.86-0.95-2.65-1.35-4.36-0.96
					c-1.26,0.28-3.53,1.25-4.52,4.53c-3.07,10.17-7.55,15.23-15.97,18.05C130.51,116.38,126.47,114.7,124.21,113.14z"/>
			</g>
			<g>
				<path d="M163.8,191.18c0,0-26.42,8.56-33.12,1.86c-6.7-6.7,7.26-17.67,2.6-22.33s-16-8.84-16,4.7
					c0,13.53-1.49,25.07-12.28,22.09c0,0-10.37-5.72-13.77-2.33c0,0-57.21,231.16,202.88,302.32v-6.7l-47.93-28.47
					c0,0-5.41-4.82-8.28-1.95c-2.87,2.87-27.37,1.81-33.09-15.63c0,0-2.23-3.91,10.05,0c12.28,3.91-29.58-37.67-29.58-37.67
					l32.93-15.63l5.02-28.95l-44.65-147.7L163.8,191.18z"/>
				<path class="st16" d="M296.63,500.78l-3.16-0.86c-59.76-16.35-107.72-42.56-142.55-77.92c-27.92-28.34-47.49-62.55-58.18-101.68
					c-18.17-66.54-4.07-125.15-3.92-125.74l0.17-0.67l0.49-0.49c4.25-4.25,13.35,0.07,16.47,1.75c3.18,0.8,4.47-0.18,4.91-0.51
					c3.49-2.66,3.94-11.68,3.94-19.25c0-7.23,3-9.99,5.51-11.03c4.68-1.94,11.09,0.9,14.75,4.56c3.39,3.39,1.04,8.05-1.04,12.16
					c-2.38,4.71-3.77,7.96-1.57,10.16c3.87,3.87,20.21,0.88,30.58-2.47l1.85-0.6l16,25.56l0.1,0.32l44.82,148.27l-5.34,30.81
					l-30.91,14.67c3.15,3.19,8.81,8.98,14.3,14.94c4.82,5.23,8.57,9.58,11.15,12.91c4.3,5.56,5.39,8.25,4.15,10.3
					c-0.64,1.06-2.04,2.13-5.04,1.17c-3.18-1.01-5.14-1.41-6.3-1.55c2.83,6.55,8.71,9.88,13.33,11.55
					c7.08,2.55,13.79,2.14,15.08,1.41c3.5-3.39,8.74-0.57,11.45,1.76l48.96,29.07V500.78z M93.46,196.7
					c-1.69,7.64-12.5,61.69,4.16,122.5c10.48,38.26,29.65,71.7,56.96,99.39c33.58,34.05,79.68,59.48,137.05,75.63v-1.99
					l-46.91-27.86l-0.18-0.16c-1.46-1.29-4.14-2.76-4.85-2.05c-2.52,2.53-10.03,2.37-16.14,0.91c-6.19-1.48-17.12-5.69-21.04-17.36
					c-0.48-1.06-0.53-2.53,0.41-3.69c1.51-1.87,4.48-2.01,10.31-0.37c-4.29-6.33-17.53-20.71-29.7-32.79l-2.52-2.51l34.97-16.6
					l4.7-27.09L176.3,215.85l-13.59-21.71c-7.23,2.18-27.11,7.35-33.79,0.67c-4.93-4.93-1.71-11.3,0.64-15.95
					c1.25-2.47,2.8-5.54,1.97-6.37c-2.45-2.45-6.88-4.48-9.3-3.48c-2.01,0.83-2.43,3.94-2.43,6.41c0,9.72-0.72,19.27-5.91,23.22
					c-2.5,1.9-5.71,2.33-9.53,1.28l-0.28-0.08l-0.26-0.14C99.77,197.48,95.13,196.18,93.46,196.7z"/>
			</g>
			<g>
				<path d="M313.76,170.72c0,0-16.37-43.81,0-49.12c16.37-5.3,25.58,0,22.51-11.44s-9.91-16.33-17.58-8.65s-17.02,9.49-20.09,0.84
					s-4.19-23.72-4.19-23.72s36.28-4.47,36.28-12.28s-12.84-13.4,8.37-19.53s13.67,10.6,19.81,12.84
					c6.14,2.23,45.49-8.09,45.49-8.09s3.63,23.72,16.74,19.26c13.12-4.47,18.42-13.12,25.67,1.12s3.07,16.74-10.6,15.35
					c-13.67-1.4-13.67,12.84,15.91,42.42l-22.6,24.56l-64.56,18.7l-41.77,5.86L313.76,170.72z"/>
				<path class="st16" d="M322.38,181.45l-10.74-9.25l-0.22-0.6c-0.49-1.32-11.98-32.41-5.35-46.13c1.52-3.15,3.85-5.25,6.92-6.24
					c5.97-1.93,11.09-2.52,14.83-2.95c2.85-0.33,5.8-0.67,6.34-1.45c0.13-0.19,0.49-1.05-0.3-4.01c-1.54-5.75-4.12-9.63-6.88-10.37
					c-2.4-0.64-4.87,1.19-6.52,2.84c-5.54,5.54-11.82,8.18-16.79,7.06c-2.43-0.55-5.69-2.23-7.43-7.15
					c-3.15-8.86-4.28-23.74-4.32-24.37l-0.18-2.38l2.36-0.29c23.95-2.95,34.08-8.2,34.08-9.8c0-1.65-0.88-3.35-1.81-5.14
					c-1.35-2.6-2.88-5.55-1.51-8.75c1.42-3.31,5.46-5.71,13.5-8.04c6.7-1.94,11.36-1.94,14.65,0.01c3.61,2.14,4.46,5.94,5.15,9
					c0.4,1.77,0.81,3.6,1.57,3.88c3.38,1.23,25.03-3.18,44-8.16l2.68-0.7l0.42,2.74c0.57,3.66,3.12,13.81,8.12,16.84
					c1.6,0.97,3.35,1.11,5.35,0.43c3.16-1.08,5.89-2.43,8.29-3.62c7.13-3.53,13.87-6.87,20.41,5.97c4.01,7.87,4.79,12.6,2.59,15.8
					c-2.53,3.7-8.1,3.94-15.68,3.17c-1.76-0.18-4.85-0.2-5.73,1.66c-0.48,1.01-1.12,4.18,3.27,11.75
					c3.99,6.88,10.85,15.21,20.39,24.75l1.7,1.7l-24.7,26.84l-65.58,18.97L322.38,181.45z M315.88,169.25l8.05,6.93l40.47-5.68
					l63.72-18.45l20.52-22.29c-11.34-11.57-27.63-30.63-22.95-40.48c0.95-1.99,3.59-5.22,10.76-4.49
					c6.42,0.66,10.13,0.31,11.04-1.02c0.54-0.79,0.89-3.24-2.92-10.71c-4.3-8.44-6.49-7.35-13.74-3.76
					c-2.55,1.26-5.44,2.69-8.9,3.87c-3.39,1.15-6.7,0.85-9.55-0.89c-6.03-3.66-8.86-12.99-9.93-17.65
					c-10.25,2.62-38.48,9.51-44.41,7.36c-3.33-1.21-4.08-4.54-4.74-7.48c-0.55-2.45-1.06-4.75-2.81-5.79
					c-1.94-1.15-5.64-0.98-10.71,0.49c-8,2.32-9.88,4.26-10.29,5.21c-0.41,0.96,0.24,2.33,1.35,4.48c1.11,2.14,2.37,4.57,2.37,7.45
					c0,4.75-6.19,8.3-20.08,11.5c-6.38,1.47-12.68,2.46-16,2.93c0.44,4.5,1.62,14.48,3.84,20.73c0.8,2.25,2.05,3.54,3.82,3.95
					c3.18,0.72,7.96-1.52,12.15-5.71c4.68-4.68,8.75-4.83,11.34-4.14c4.65,1.24,8.35,6.18,10.42,13.91
					c0.68,2.52,1.24,5.72-0.39,8.12c-1.83,2.68-5.21,3.07-9.9,3.61c-3.73,0.43-8.36,0.96-13.86,2.74c-1.75,0.57-3.05,1.76-3.96,3.66
					C305.94,137.21,312.64,160.34,315.88,169.25z"/>
			</g>
			<g>
				<path d="M359.99,396.76c0,0,56.09,1.95,84.28-19.53c0,0-1.4-4.31-9.21-7.32c-7.81-3.01-1.67-17.24,21.77-24.49
					c23.44-7.26,30.7-11.4,24.56,14.95s60-27.79,60-27.79s-20.93-7.26-14.23-37.4c6.7-30.14,26.51,8.09,26.51-32.37
					c0,0-1.95-19.53-15.91-9.77c-1.72,1.21-1.32,5.66-2.45,7.53c-2.38,3.92-8.84,5.19-13.09,4.21c-4.33-1-6.73-4.88-8.46-8.66
					c-6.14-13.4-10.05-26.23-10.05-26.23l-14.09-14.09l-42.28-5.07c0,0-49.99,22.39-50.79,21.59c-0.8-0.8-77.86,47.24-77.86,47.24
					l21.85,107.72L359.99,396.76z"/>
				<path class="st16" d="M364.13,399.32c-2.39,0-3.88-0.05-4.22-0.06l-0.53-0.02l-21.04-10.26l-22.44-110.63l1.47-0.92
					c0.19-0.12,19.49-12.15,38.64-23.93c11.25-6.92,20.25-12.4,26.75-16.29c3.87-2.32,6.89-4.09,8.98-5.27
					c2.38-1.35,3.81-2.16,4.91-2.16c4.23-1.24,32.37-13.6,49.66-21.34l0.63-0.28l43.83,5.26l15.15,15.15l0.18,0.6
					c0.04,0.13,3.93,12.84,9.93,25.92c2.05,4.48,4.07,6.65,6.75,7.27c3.53,0.82,8.72-0.32,10.39-3.07c0.23-0.38,0.43-1.61,0.56-2.43
					c0.34-2.13,0.73-4.54,2.59-5.85c4.56-3.19,8.64-4,12.12-2.4c6.42,2.95,7.59,12.84,7.7,13.96l0.01,0.25
					c0,11.36-1.52,17.75-4.94,20.73c-3,2.6-6.62,2.1-9.8,1.65c-5.34-0.75-9.2-1.29-11.83,10.54c-6.1,27.46,11.85,34.22,12.62,34.5
					l4.16,1.49l-3.41,2.8c-0.12,0.1-12.56,10.26-26,19.56c-25.15,17.4-32.31,17.18-35.72,15.06c-2.59-1.61-3.36-4.75-2.29-9.33
					c2.26-9.71,2.62-15.35,1.08-16.79c-1.84-1.71-9.21,0.62-17.74,3.31c-1.5,0.47-3.07,0.97-4.73,1.48
					c-16.66,5.16-23.08,13.42-23.22,17.42c-0.04,1.18,0.46,1.91,1.61,2.35c8.68,3.34,10.51,8.33,10.69,8.88l0.54,1.68l-1.41,1.07
					C421.44,397.78,377.9,399.32,364.13,399.32z M360.59,394.28c5.57,0.12,54.1,0.55,80.32-17.7c-1.03-1.19-3.04-2.91-6.76-4.34
					c-3.12-1.2-4.92-3.89-4.81-7.18c0.22-6.7,8.69-16.45,26.73-22.03c1.65-0.51,3.21-1,4.7-1.47c11.64-3.67,18.66-5.89,22.64-2.21
					c3.25,3.01,3.36,8.86,0.39,21.59c-0.63,2.69-0.25,3.75,0.07,3.95c0.47,0.29,5.28,2.33,30.22-14.91
					c9.4-6.5,18.3-13.43,22.75-16.96c-6.19-3.93-17.42-14.6-12.14-38.37c3.63-16.33,11.92-15.17,17.4-14.4
					c2.83,0.39,4.62,0.58,5.83-0.47c1.46-1.27,3.21-5.23,3.22-16.82c-0.25-2.2-1.61-8.34-4.81-9.8c-1.74-0.79-4.12-0.16-7.08,1.89
					c-0.26,0.42-0.48,1.79-0.61,2.61c-0.24,1.48-0.49,3.02-1.22,4.23c-2.96,4.88-10.5,6.57-15.79,5.34
					c-5.51-1.28-8.33-6.05-10.17-10.06c-5.39-11.75-9.12-23.22-9.98-25.94l-13.05-13.05l-40.73-4.88
					c-2.7,1.21-13.62,6.08-24.49,10.82c-17.63,7.69-23.7,10.26-26.24,10.67c-4.51,2.02-46.82,28.1-75.52,45.99l21.26,104.81
					L360.59,394.28z"/>
			</g>
			<g>
				<path d="M313.76,170.72c0,0,55.44-6.14,59.07-13.67s2.7-9.77-7.16-11.44c-9.86-1.67-18.23-18.14,11.07-25.12
					c29.3-6.98,27.07,5.3,24.84,13.95c-2.23,8.65,14.79,12,50.51-4.74c0,0,28.47,29.3,14.23,31.81
					c-14.23,2.51-25.4,3.91-16.74,25.12s28.47,6.42,29.86,0c1.4-6.42,17.86-10.88,24.28,43.26c0,0-49.4,27.07-53.86,22.6
					c-4.47-4.47,6.7-20.65,1.12-23.16s-57.21,3.23-49.95,23.66c0,0,6.7,7.6,12,9.55c5.3,1.95,2.33,24.09-73.21,27.26l-22.51-14.14
					l-33.87-8.62l-17.11-41.61l23.91-35.16L313.76,170.72z"/>
				<path class="st16" d="M339.13,292.32l-22.84-14.34l-34.71-8.83l-18.1-44.02l24.86-36.57l24.38-20.24l0.75-0.08
					c33.01-3.66,55.34-9.22,57.1-12.28c1.42-2.95,1.96-4.81,1.59-5.52c-0.31-0.6-1.76-1.49-6.93-2.37
					c-6.12-1.04-11.05-6.37-11.24-12.13c-0.36-10.88,13.73-15.87,22.15-17.88c13.75-3.28,22.11-2.8,26.32,1.48
					c4.38,4.46,2.52,11.66,1.52,15.53c-0.34,1.33,0.14,1.95,0.67,2.38c3.12,2.59,16.83,3.83,46.36-10.02l1.61-0.76l1.24,1.28
					c3.61,3.71,21.46,22.68,18.58,31.57c-0.54,1.67-1.97,3.79-5.71,4.45l-1.03,0.18c-7.35,1.29-13.7,2.4-15.8,6.21
					c-1.66,3-1.02,8.01,1.96,15.32c2.74,6.71,6.76,9.88,11.99,9.42c6.57-0.57,12.6-6.62,13.12-9.01c0.65-2.97,3.44-5.86,7.56-5.68
					c14.35,0.69,19.92,34.62,21.64,49.17l0.2,1.68l-1.48,0.81c-0.12,0.07-12.55,6.87-25.37,13.04
					c-25.29,12.17-29.41,11.19-31.46,9.14c-3.26-3.25-1.47-8.98,0.26-14.52c0.78-2.51,2.24-7.18,1.59-8.14
					c-3.81-1.55-33.53,1.23-43.95,11.18c-2.9,2.77-3.79,5.62-2.77,8.93c2.03,2.22,7.02,7.15,10.66,8.49c2.4,0.88,3.7,3.5,3.22,6.5
					c-1.71,10.88-22.88,23.32-77.19,25.6L339.13,292.32z M285.26,264.92l33.03,8.41l22.19,13.93c23.53-1.03,42-4,54.91-8.81
					c12.46-4.65,15.65-9.53,16.45-11.41c0.55-1.3,0.36-2.01,0.25-2.18c-5.71-2.14-12.22-9.39-12.94-10.22l-0.32-0.36l-0.16-0.45
					c-1.94-5.47-0.51-10.63,4.14-14.92c12.19-11.23,44.04-14.18,49.19-11.86c4.87,2.19,2.88,8.56,1.12,14.18
					c-0.92,2.96-2.44,7.81-1.66,9.28c4.61,0.6,28.75-10.68,49.56-22c-4.21-33.53-12.45-42.89-16.71-43.09
					c-1.5-0.06-2.28,1.01-2.44,1.75c-1.14,5.23-9.47,12.22-17.57,12.93c-4.31,0.37-12.25-0.75-17.05-12.52
					c-3.64-8.92-4.18-15.16-1.71-19.63c3.26-5.9,10.7-7.2,19.31-8.71l1.02-0.18c1.57-0.28,1.75-0.85,1.82-1.06
					c1.23-3.82-7.24-15.78-16.19-25.27c-24.04,11.02-43.13,14.32-50.05,8.58c-2.26-1.87-3.08-4.53-2.32-7.48
					c1.04-4.03,1.97-8.52-0.25-10.78c-1.91-1.94-7.2-3.54-21.59-0.12c-11.64,2.77-18.49,7.58-18.31,12.85
					c0.11,3.42,3.29,6.72,7.08,7.37c5.38,0.91,9.02,2.07,10.53,5c1.41,2.72,0.4,5.96-1.54,9.99c-0.85,1.76-2.83,5.87-32.72,11.04
					c-12.34,2.14-24.49,3.59-27.58,3.95l-22.69,18.83l-22.95,33.76L285.26,264.92z"/>
			</g>
			<g>
				<path d="M164.92,305.79c0,0-6.14,40.74,8.09,46.6c14.23,5.86,24.28-15.91,34.6,7.53c10.33,23.44-1.6,18.42-22.01,14.51
					s-0.32,32.65-0.32,32.65s58.33,3.63,63.91,5.3c5.58,1.67,8.37,5.3,5.58,13.12s13.12,14.51,29.58,11.16
					c16.47-3.35,24.56-5.02,12.56-14.23s27.07-23.72,63.07-25.67c0,0-23.44-30.42,9.49-40.47s33.77,11.16,33.77-22.33
					c0,0-7.81-22.05-25.67-9.21c-17.86,12.84-24.93,23.44-33.53,2.79s-4.23-37.77-4.23-37.77l-11.35-6.6l-67.53,10.05l-44.09,3.35
					l-45.49,3.91L164.92,305.79z"/>
				<path class="st16" d="M275.58,440.05c-9.09,0-17.46-2.64-21.38-7.16c-2.15-2.49-2.79-5.4-1.78-8.21
					c1.09-3.04,1.24-5.37,0.46-6.92c-0.66-1.3-2.1-2.27-4.41-2.96c-3.89-1.17-40.01-3.75-63.34-5.2l-1.37-0.08l-0.66-1.21
					c-0.14-0.25-3.34-6.09-5.92-12.96c-3.75-9.97-4.23-16.67-1.45-20.49c2.05-2.82,5.54-3.79,10.35-2.86
					c2.2,0.42,4.31,0.86,6.3,1.27c7.2,1.49,14.65,3.03,16.11,1.21c0.54-0.67,1.33-3.34-3.16-13.53c-5.3-12.04-9.44-10.4-16.3-7.68
					c-4.65,1.84-10.45,4.14-16.97,1.45c-15.59-6.42-10.27-44.92-9.61-49.29l0.14-0.95l7.76-6.41l46.27-3.97l44.03-3.34l68.31-10.16
					l13.74,8l-0.47,1.83c-0.04,0.16-4.03,16.62,4.12,36.19c2.54,6.08,4.92,9.35,7.29,9.98c3.25,0.86,8.3-3.03,14.68-7.96
					c2.31-1.79,4.93-3.81,7.8-5.87c5.75-4.13,11.25-5.42,16.33-3.83c9.02,2.83,12.99,13.77,13.16,14.24l0.14,0.41v0.43
					c0,14-0.13,18.54-2.82,20.99c-2.02,1.83-4.69,1.56-8.07,1.22c-4.93-0.49-12.38-1.23-24.64,2.51
					c-8.26,2.52-13.33,6.57-15.09,12.03c-3.48,10.87,6.75,24.38,6.85,24.52l2.89,3.76l-4.73,0.26c-14.11,0.77-29.49,3.54-42.2,7.62
					c-14.02,4.5-19.88,8.97-20.65,11.44c-0.1,0.33-0.31,1.01,1.16,2.14c3.75,2.88,7.46,6.32,6.59,10.08
					c-1.09,4.7-7.87,6.08-20.17,8.58C281.78,439.75,278.64,440.05,275.58,440.05z M186.83,404.68c10.24,0.64,57.7,3.7,63.08,5.32
					c3.69,1.11,6.12,2.91,7.43,5.5c1.44,2.86,1.38,6.41-0.21,10.85c-0.25,0.69-0.43,1.78,0.85,3.26c3.5,4.04,14.38,6.95,25.88,4.61
					c6.57-1.34,15.58-3.17,16.3-4.83c-0.01-0.02-0.04-1.34-4.77-4.97c-3.68-2.83-3.39-5.96-2.89-7.58c2-6.47,14.1-11.58,23.89-14.72
					c11.8-3.79,25.83-6.49,39.12-7.56c-3.26-5.41-8.21-15.8-5.16-25.35c2.28-7.13,8.46-12.28,18.39-15.31
					c13.22-4.03,21.59-3.2,26.59-2.7c1.71,0.17,3.85,0.38,4.22,0.04c1.16-1.05,1.18-8.99,1.18-16.81c-0.7-1.72-3.95-8.95-9.81-10.77
					c-3.5-1.09-7.5-0.04-11.9,3.12c-2.79,2.01-5.38,4-7.66,5.77c-7.76,6-13.37,10.33-19.02,8.84c-4.08-1.08-7.36-5.06-10.62-12.89
					c-7.27-17.44-5.64-32.35-4.73-37.47l-9.04-5.26l-66.85,9.94l-44.09,3.35l-44.69,3.84l-5.08,4.19
					c-2.12,15.09-2.14,39.33,6.71,42.98c4.65,1.92,8.82,0.27,13.22-1.48c7.25-2.87,15.47-6.13,22.72,10.32
					c4.4,10,5.12,15.41,2.47,18.69c-3.38,4.18-10.39,2.73-21.01,0.54c-1.97-0.41-4.05-0.84-6.22-1.25
					c-2.75-0.52-4.55-0.22-5.37,0.89C176.86,381.79,181.98,395.49,186.83,404.68z"/>
			</g>
			<g>
				<path d="M164.92,309.88c0,0,33.91-7.44,48-3.95c14.09,3.49,20.65,10.33,14.09,18.14c-6.56,7.81-2.93,14.51,8.51,14.51
					c11.44,0,44.65-4.88,33.49-16.05c-11.16-11.16-14.93-13.81-2.09-18.42s52.6-15.07,72.88-14.33c0,0,6.14-32.19-17.12-42.98
					c-23.26-10.79-12.47,16.74-33.3,6.33c-20.84-10.42-11.35-43.72,9.12-40.37s26.05,1.67,24.19-6.33c-1.86-8-8.93-35.72-8.93-35.72
					s-48.37,6.33-57.3,11.53c-8.93,5.21-10.71,7.72-3.73,14.7c6.98,6.98-16.18,24-32.92,16c-16.74-8,5.4-10.79,5.4-17.12
					c0-6.33-3.53-14.51-61.4-4.65c0,0,6.14,30.33-2.23,38.7c-8.37,8.37-13.58-5.4-21.95,2.98c-8.37,8.37-3.53,33.3,5.58,32.37
					s16.64-16.88,18.23,14.88C164.92,309.88,164.92,309.88,164.92,309.88"/>
				<path class="st16" d="M235.52,341.08c-6.84,0-11.63-2.2-13.49-6.19c-0.98-2.11-1.89-6.52,3.06-12.43
					c1.74-2.08,2.32-3.91,1.77-5.61c-1.08-3.33-6.52-6.51-14.54-8.49c-13.37-3.31-46.53,3.9-46.86,3.97l-2.89,0.63l-1.64-32.72
					c-0.74-14.71-2.76-16.94-3.37-17.27c-0.65-0.36-2.78,0.84-4.33,1.72c-2.28,1.28-4.85,2.73-7.78,3.03
					c-3.86,0.4-7.32-2.17-9.72-7.21c-4.16-8.75-4.31-22.98,2.12-29.41c5.35-5.35,10.16-3.44,13.67-2.04
					c3.28,1.3,5.26,2.09,8.29-0.93c2.86-2.86,4.11-10.15,3.53-20.52c-0.47-8.36-1.97-15.83-1.98-15.91l-0.51-2.53l2.54-0.43
					c23.88-4.07,52.4-7.8,61.1-0.45c2.88,2.43,3.21,5.48,3.21,7.57c0,3.75-3.83,6.09-7.21,8.16c-1.48,0.91-4.24,2.59-4.45,3.41
					c0,0,0,0,0,0c0.02,0,0.44,1.2,4.84,3.3c10.74,5.13,24.82-1.28,29.42-7.78c1.33-1.89,1.56-3.3,0.66-4.2
					c-2.84-2.84-5.41-5.96-4.96-9.44c0.49-3.82,4.46-6.42,9.2-9.18c9.1-5.31,53.24-11.2,58.24-11.85l2.2-0.29l0.55,2.15
					c0.07,0.28,7.1,27.84,8.94,35.77c0.83,3.56,0.37,6.22-1.41,8.12c-3.21,3.43-10.16,3.77-25.61,1.24
					c-9.11-1.49-14.76,5.4-16.82,11.76c-2.59,8-0.81,18.89,9.22,23.9c8.2,4.1,9.76,1.75,12.35-2.16c3.71-5.6,8.1-10.13,20.89-4.2
					c24.74,11.48,18.58,45.37,18.52,45.71l-0.4,2.11l-2.15-0.08c-20.35-0.72-60.23,9.98-71.95,14.18c-5.85,2.1-6.38,3.23-6.42,3.44
					c-0.27,1.21,3.88,5.33,7.53,8.96l1.91,1.9c3.53,3.53,3.31,6.6,2.5,8.55C269.25,339.03,240.93,341.08,235.52,341.08z
					 M203.09,302.5c3.95,0,7.56,0.29,10.43,1c10.14,2.51,16.4,6.59,18.1,11.8c0.77,2.36,0.92,6.07-2.69,10.38
					c-2.32,2.76-3.18,5.35-2.36,7.1c0.96,2.07,4.31,3.3,8.96,3.3c16.31,0,31.72-5.25,33.14-8.68c0.33-0.79-0.15-1.83-1.42-3.1
					l-1.9-1.89c-6.29-6.25-9.75-9.7-8.89-13.59c0.73-3.26,4.22-5.12,9.62-7.06c11.55-4.14,49.99-14.49,71.56-14.51
					c0.8-7.01,1.93-29.85-16-38.17c-9.94-4.61-11.9-1.66-14.62,2.43c-2.78,4.2-6.6,9.94-18.75,3.87
					c-12.67-6.33-14.97-19.95-11.74-29.92c2.88-8.9,10.92-17.04,22.38-15.16c4.59,0.75,18.57,3.04,21.16,0.27
					c0.54-0.58,0.61-1.78,0.19-3.57c-1.53-6.58-6.67-26.84-8.37-33.51c-14.71,1.99-47.55,7.06-54.17,10.92
					c-2.12,1.24-6.54,3.81-6.76,5.5c-0.09,0.7,0.45,2.18,3.54,5.27c2.71,2.71,2.67,6.68-0.12,10.62
					c-5.7,8.06-22.42,15.73-35.65,9.41c-3.48-1.66-7.49-4.03-7.68-7.6c-0.19-3.6,3.38-5.78,6.83-7.88c1.57-0.96,4.82-2.95,4.82-3.89
					c0-1.56-0.24-2.74-1.44-3.75c-3.59-3.03-16.01-5.25-54.53,1.14c1.39,7.98,4.46,30.57-3.39,38.42
					c-5.35,5.35-10.16,3.44-13.67,2.04c-3.28-1.3-5.26-2.09-8.29,0.93c-3.81,3.81-5.17,15.25-1.14,23.73
					c0.66,1.4,2.45,4.62,4.7,4.38c1.89-0.19,3.89-1.32,5.83-2.41c2.87-1.61,6.11-3.45,9.2-1.74c3.61,1.99,5.28,7.99,5.95,21.4
					l1.34,26.85C173.86,305.52,190.27,302.5,203.09,302.5z"/>
			</g>
			<path class="st2" d="M230.9,290.17l-0.93-22.33l4.22-1.16c1.9-0.56,11.43-4.17,7.72-18.22c-2.17-8.24-9.64-11.81-16.13-11.69
				c-2.78,0.05-12.05,1.06-14.53,12.03c-1.37,6.05-0.98,10.69,1.15,13.79c2.41,3.51,6.59,4.15,6.63,4.16l4.61,0.55l0.17,4.62
				l0.89,17.75l-30.63,0.25l-0.96-15.14l10.97-0.69l0.3,4.76l8.77-0.07l-0.12-2.37c-2.93-1.15-6.67-3.32-9.54-7.38
				c-4.06-5.75-5.06-13.37-2.96-22.65c2.78-12.29,12.61-20.38,25.05-20.6c12.69-0.23,23.81,7.95,26.96,19.88
				c4.44,16.82-3.9,26.09-11.24,29.94l0.13,3.16l9.58-0.37l-0.03-3.44l10.99-0.11l0.14,14.12L230.9,290.17z"/>
			<g>
				
					<rect x="234.89" y="354.71" transform="matrix(0.511 -0.8596 0.8596 0.511 -187.7844 384.3)" class="st2" width="18.02" height="5"/>
				
					<rect x="240.75" y="390.22" transform="matrix(0.0383 -0.9993 0.9993 0.0383 -155.6573 623.701)" class="st2" width="10.89" height="5"/>
				
					<rect x="260.69" y="382.52" transform="matrix(0.646 -0.7633 0.7633 0.646 -202.4528 338.0018)" class="st2" width="5" height="9.5"/>
				
					<rect x="257.44" y="368.49" transform="matrix(0.6148 -0.7887 0.7887 0.6148 -195.2404 349.2991)" class="st2" width="5" height="12.03"/>
				<polygon class="st2" points="248.16,374.98 231.74,363.81 234.56,359.68 246.84,368.03 254.25,357.13 258.38,359.94 				"/>
				<polygon class="st2" points="241.41,385.49 237.24,380.95 247.52,368.33 251.4,371.49 245.81,378.36 259.02,373.09 
					260.87,377.74 				"/>
				<polygon class="st2" points="256.68,398.72 251.68,398.72 251.68,385.7 247.44,381.46 250.97,377.93 256.68,383.63 				"/>
				
					<rect x="256.52" y="355.61" transform="matrix(0.5503 -0.835 0.835 0.5503 -178.6962 384.4493)" class="st2" width="22.06" height="5"/>
				<polygon class="st2" points="272.38,369.19 263.44,365 265.56,360.47 272.62,363.78 293.26,356.19 294.99,360.88 				"/>
				
					<rect x="275.99" y="353.49" transform="matrix(0.1301 -0.9915 0.9915 0.1301 -107.1535 589.8409)" class="st2" width="13.16" height="5"/>
				<polygon class="st2" points="274.35,401.8 266.93,365.52 271.82,364.52 278.19,395.64 302.99,389.18 304.25,394.02 				"/>
				
					<rect x="281.88" y="363.08" transform="matrix(0.971 -0.239 0.239 0.971 -82.4174 78.9488)" class="st2" width="5" height="32.59"/>
				
					<rect x="271.49" y="371.93" transform="matrix(0.9614 -0.275 0.275 0.9614 -92.1004 92.0276)" class="st2" width="21.24" height="5"/>
				
					<rect x="273.59" y="382.07" transform="matrix(0.97 -0.243 0.243 0.97 -84.9154 80.7136)" class="st2" width="22.26" height="5"/>
			</g>
			<g>
				
					<rect x="436.82" y="278.86" transform="matrix(0.9657 -0.2596 0.2596 0.9657 -64.0413 125.2506)" class="st2" width="10.72" height="52.45"/>
				
					<rect x="470.72" y="267.24" transform="matrix(0.9704 -0.2414 0.2414 0.9704 -57.1017 123.6428)" class="st2" width="10.72" height="55.28"/>
				
					<rect x="436.19" y="295.05" transform="matrix(0.5707 -0.8211 0.8211 0.5707 -49.6879 505.7746)" class="st2" width="45.43" height="10.72"/>
				
					<rect x="424.61" y="274.67" transform="matrix(0.9615 -0.2748 0.2748 0.9615 -60.1934 130.48)" class="st2" width="21.81" height="10.72"/>
				
					<rect x="460.41" y="262.55" transform="matrix(0.9693 -0.2459 0.2459 0.9693 -51.4515 123.7425)" class="st2" width="18.82" height="10.72"/>
				
					<rect x="439.69" y="324.57" transform="matrix(0.9701 -0.2426 0.2426 0.9701 -66.5921 119.0336)" class="st2" width="20.77" height="10.72"/>
				
					<rect x="473.73" y="316.47" transform="matrix(0.9644 -0.2645 0.2645 0.9644 -67.9338 139.0543)" class="st2" width="17.51" height="10.72"/>
			</g>
			<g>
				<g>
					<path d="M350.97,99.84l-7.81-12.47l25.3-8.74l5.95,3.16c0,0,4.65,21.21-15.63,31.07"/>
					<path class="st2" d="M359.87,115.11l-2.19-4.5c15.9-7.73,15.05-22.94,14.46-27.19l-3.91-2.08l-21.3,7.36l6.14,9.8l-4.24,2.66
						l-9.48-15.13l29.3-10.13l7.94,4.22l0.25,1.13C376.9,81.48,381.67,104.51,359.87,115.11z"/>
				</g>
				<g>
					<line x1="356.44" y1="82.78" x2="352.98" y2="75.28"/>
					
						<rect x="352.21" y="74.9" transform="matrix(0.9076 -0.4199 0.4199 0.9076 -0.3959 156.2548)" class="st2" width="5" height="8.26"/>
				</g>
				<g>
					<line x1="388.41" y1="94.07" x2="397.48" y2="108.02"/>
					
						<rect x="390.44" y="92.72" transform="matrix(0.8384 -0.545 0.545 0.8384 8.4129 230.4695)" class="st2" width="5" height="16.64"/>
				</g>
				<g>
					<path d="M377.38,103c0.65-0.65,15.56-6.33,15.56-21.21"/>
					<path class="st2" d="M378.83,105.03c0.02-0.01,0.16-0.1,0.33-0.27l-3.54-3.54c0.35-0.35,0.7-0.54,1.47-0.94
						c3.3-1.73,13.35-7,13.35-18.5h5c0,9.63-5.39,17.35-16.03,22.93C379.15,104.86,378.95,104.96,378.83,105.03z"/>
				</g>
			</g>
			<g>
				<path d="M87.15,275.33c0,0,11.59,13.85,14.14,11.29c2.56-2.56-6.7-19.63,0-21.58c6.7-1.95,22.05,2.23,20.37,18.14
					c-1.67,15.91,2.94,29.08,47.1,25.91"/>
				<path class="st16" d="M156.43,312.07c-16.08,0-26.44-2.86-32.18-8.79c-5.77-5.97-5.75-14.02-5.08-20.37
					c0.55-5.27-0.91-9.4-4.35-12.28c-4.25-3.55-10.06-4.01-12.83-3.2c-1.68,0.49,0.12,7.43,0.89,10.39
					c1.29,4.95,2.21,8.52,0.18,10.56c-0.72,0.72-1.72,1.09-2.79,1.04c-4.14-0.18-11.2-7.91-15.04-12.5l3.83-3.21
					c3.61,4.31,7.72,8.35,10.06,9.97c-0.23-1.36-0.72-3.22-1.08-4.61c-1.6-6.16-3.79-14.6,2.55-16.45
					c4.59-1.34,12.05-0.34,17.44,4.16c3.3,2.76,7.04,7.88,6.12,16.64c-0.83,7.93,0.27,12.82,3.7,16.37
					c5.91,6.11,19.24,8.33,40.74,6.79l0.36,4.99C164.44,311.91,160.27,312.07,156.43,312.07z"/>
			</g>
			<path class="st2" d="M125.72,226.67l-4.96-0.65c0.84-6.38-1.04-6.79-6.64-8.03c-0.8-0.18-1.63-0.36-2.47-0.57
				c-2.2-0.55-3.87-1.84-4.82-3.73c-2.2-4.37,0.23-10.5,0.51-11.19l4.62,1.91c-0.73,1.78-1.56,5.27-0.66,7.03
				c0.2,0.39,0.55,0.87,1.56,1.12c0.8,0.2,1.58,0.37,2.33,0.54C120.81,214.35,127.17,215.75,125.72,226.67z"/>
			<path class="st2" d="M131.77,231.63c-12.3-1.08-30.16-8.8-30.92-9.13l1.99-4.59c0.18,0.08,17.88,7.72,29.36,8.73L131.77,231.63z"
				/>
			<path class="st2" d="M116.63,260.36c-1.6,0-3.53-0.62-5.57-2.67c-8.32-8.32-7.29-29.29-7.24-30.18l4.99,0.27
				c-0.29,5.44,0.18,20.78,5.78,26.38c1.7,1.7,2.48,1.19,2.9,0.91c3.01-1.98,4.89-10.42,3.61-13.67c-0.05-0.12-0.09-0.22-0.13-0.31
				c-0.41,0.35-0.92,0.87-1.27,1.22c-1.41,1.43-2.86,2.91-4.84,2.91c-0.92,0-1.77-0.4-2.39-1.12c-1.66-1.94-1.68-8.05-0.08-18.14
				l4.94,0.79c-0.66,4.17-1.15,9.07-1.14,12.01c1.52-1.55,3.43-3.43,5.87-2.93c2.41,0.49,3.37,2.95,3.69,3.76
				c2.1,5.34-0.29,16.25-5.52,19.68C119.54,259.71,118.26,260.36,116.63,260.36z"/>
			<g>
				<path class="st2" d="M143.36,369.02c-0.08-0.25-7.63-25.49-10.4-32.76c-2.62-6.87-16-20.8-19.13-19.99
					c0,0.01-0.03,0.05-0.06,0.12c-0.17,0.35-1.48,3.97,6.09,23.76c4.28,11.18,8.9,21.09,9.4,21.95c-0.01-0.02-0.12-0.21-0.33-0.41
					l-3.54,3.53c-1.03-1.03-6.93-14.8-9.91-22.52c-8.91-23.1-6.93-27.06-6.18-28.55c0.97-1.94,2.77-2.99,4.93-2.88
					c7.79,0.39,21.02,16.91,23.41,23.2c2.83,7.44,10.21,32.06,10.52,33.1L143.36,369.02z"/>
				<path class="st2" d="M144.27,341.08c-16.7,0-31.44-8.94-32.06-9.32l2.62-4.26c0.14,0.09,14.19,8.58,29.44,8.58V341.08z"/>
				<path class="st2" d="M136.63,359.12c-1.31,0-2.58-0.25-3.78-0.74c-3.26-1.34-5.69-4.39-6.84-8.58c-0.83-3.03,0.39-4.7,1.2-5.43
					c3.17-2.88,10.09-0.69,12.92,0.39l-1.78,4.67c-2.94-1.11-6.45-1.75-7.61-1.42c0.01,0.11,0.04,0.26,0.09,0.46
					c0.73,2.67,2.13,4.54,3.92,5.28c1.66,0.68,3.65,0.41,5.75-0.8l2.49,4.33C140.88,358.5,138.71,359.12,136.63,359.12z"/>
			</g>
			<g>
				<path d="M116.15,371.51c0,0,21.79,21.35,23.84,19.3s-5.3-11.26-2.79-13.77s16.83,1.95,18.93,13.91
					c2.09,11.95,8.46,14.77,29.16,16.14"/>
				<path class="st16" d="M185.13,409.58c-21.11-1.4-29.04-4.36-31.46-18.2c-1.06-6.04-5.61-9.31-8.23-10.72
					c-2.85-1.54-5.25-1.87-6.25-1.79c0.15,1.11,1.15,3.36,1.72,4.65c1.56,3.53,3.04,6.87,0.86,9.05c-2.08,2.08-4.78,1.32-16.12-8.78
					c-5.68-5.06-11.18-10.45-11.24-10.5l3.5-3.57c6.6,6.47,14.45,13.55,18.88,16.87c-0.16-0.37-0.32-0.73-0.46-1.04
					c-1.69-3.81-3.43-7.75-0.9-10.28c2.29-2.29,6.74-1.21,8.55-0.64c5.78,1.83,13.07,7.08,14.61,15.89
					c1.79,10.23,6.56,12.73,26.87,14.08L185.13,409.58z M138.77,378.96L138.77,378.96L138.77,378.96z"/>
			</g>
			<path class="st2" d="M196.94,458.23l-0.25-4.99c1.38-0.07,1.95-0.31,2.14-0.42c0.03-2.36-7.6-10.19-16.25-16.66l-1.24-0.93
				l0.28-1.52c0.39-2.12-1.97-6.8-6.1-10.38c-3.14-2.72-6.32-3.91-8.51-3.17c-0.31,0.1-0.48,0.2-0.58,0.26
				c0.17,1.47,4,5.44,8.11,8.36l-2.89,4.08c-3.3-2.34-10.91-8.33-10.17-13.28c0.17-1.11,0.9-3.14,3.95-4.15
				c3.94-1.32,8.82,0.19,13.37,4.14c3.89,3.38,7.73,8.78,7.86,13.43c1.67,1.3,5.03,3.98,8.32,7.05c7,6.53,9.67,10.95,8.64,14.34
				C202.89,456.75,200.64,458.05,196.94,458.23z"/>
			<path class="st2" d="M182.19,448.76c-1.92-1.92-2.86-6.8-3.18-8.81l4.94-0.77c0.41,2.58,1.26,5.46,1.78,6.06L182.19,448.76z"/>
			<path class="st2" d="M141.77,157.07c-1.84,0-3.54-0.76-5.04-2.26c-1.91-1.91-2.11-3.92-1.93-5.27c0.43-3.32,3.49-5.99,5.45-7.39
				l-0.34-2.21l-4.44,5.92h-18.85l0.23-2.71c0.68-7.99,5-12.33,8.82-13.72c2.78-1.02,5.53-0.63,7.16,1
				c1.23,1.23,2.48,4.12-0.97,10.43h1.11l10.07-13.43l2.65,17.23l-1.47,0.86c-1.69,0.99-4.28,3.16-4.47,4.66
				c-0.02,0.17-0.07,0.51,0.51,1.09c0.73,0.73,1.24,0.8,1.55,0.8c1.64-0.04,3.86-2.47,5.19-3.93c0.4-0.44,0.76-0.83,1.08-1.15
				l3.54,3.54c-0.27,0.27-0.58,0.61-0.92,0.98c-1.99,2.18-4.99,5.47-8.77,5.55C141.88,157.07,141.83,157.07,141.77,157.07z
				 M122.27,140.87H126c1.76-2.74,3.14-5.79,3.13-6.96c-0.33-0.08-1.11-0.1-2.17,0.39C126.06,134.72,123.39,136.32,122.27,140.87z"
				/>
			<path class="st2" d="M145.66,147.47l3.44-7.55c0.49-1.07,4.39-12.19,6.74-18.95l0.74-2.12l2.19,0.51
				c0.59,0.14,5.79,1.43,7.89,4.93c0.89,1.48,1.12,3.16,0.66,4.85c-1.48,5.51-12.43,12.58-14.62,13.94L145.66,147.47z
				 M159.74,124.97c-0.85,2.43-2.11,6.04-3.27,9.32c3.13-2.5,5.62-4.99,6.01-6.44c0.1-0.39,0.07-0.66-0.12-0.98
				C161.91,126.1,160.82,125.44,159.74,124.97z"/>
			<path class="st16" d="M187.52,188.6c-0.22-4.93,2.02-14.54,12.1-15.67c1.68-0.19,3.84-0.64,4.6-1.75
				c0.96-1.38,0.19-4.42-0.63-7.64c-0.25-1-0.51-2.03-0.74-3.08c-1.59-7.27-3-10.78-3.02-10.82l4.63-1.89
				c0.06,0.16,1.57,3.88,3.27,11.63c0.22,0.99,0.47,1.97,0.71,2.92c1.1,4.36,2.14,8.47-0.11,11.72c-1.49,2.16-4.16,3.42-8.16,3.87
				c-3.31,0.37-5.51,2.08-6.73,5.24c-1.01,2.61-0.92,5.22-0.92,5.24L187.52,188.6z"/>
			<g>
				<polygon class="st2" points="174.71,75.01 161.8,75.01 168.47,62.93 172.85,65.35 170.28,70.01 174.71,70.01 				"/>
				<polygon class="st2" points="177.13,91.96 172.29,90.73 173.92,84.28 161.84,85.47 186.54,53.13 190.51,56.17 172.79,79.36 
					180.52,78.6 				"/>
			</g>
			<g>
				<g>
					<path d="M506.97,82.71c-1.07-4.51-3.66-8.54-6.84-11.92c-3.18-3.37-6.93-6.14-10.73-8.79c-2.63-1.83-5.69-3.71-8.82-3.01
						c-2.84,0.63-4.87,3.35-5.45,6.21c-0.58,2.86,0.06,5.82,0.95,8.59c1.05,3.27,2.46,6.42,4.2,9.38c2.87,4.88,7.25,9.56,12.89,9.98
						c1.44,0.11,2.96-0.1,4.11-0.98c2.28-1.74,2.5-5.58,5.12-6.73c1.43-0.63,3.54-0.5,4.01-1.99L506.97,82.71z"/>
					<path class="st2" d="M493.85,95.67c-0.28,0-0.57-0.01-0.86-0.03c-5.58-0.42-10.86-4.39-14.86-11.2
						c-1.83-3.12-3.32-6.44-4.43-9.88c-0.86-2.67-1.75-6.21-1.02-9.85c0.82-4.08,3.78-7.36,7.36-8.15c4.48-1,8.58,1.86,10.79,3.4
						c3.57,2.49,7.67,5.45,11.12,9.12c3.86,4.1,6.36,8.49,7.45,13.05l0.27,1.14l-1.05,1.41c-0.88,1.98-2.91,2.46-4.16,2.76
						c-0.4,0.09-0.81,0.19-1.05,0.3c-0.61,0.27-1.11,1.27-1.64,2.34c-0.69,1.38-1.47,2.95-2.98,4.09
						C497.49,95.15,495.79,95.67,493.85,95.67z M481.95,61.34c-0.28,0-0.55,0.03-0.82,0.09c-1.65,0.37-3.11,2.12-3.54,4.26
						c-0.5,2.5,0.2,5.23,0.88,7.33c0.99,3.09,2.33,6.08,3.98,8.88c1.82,3.1,5.67,8.36,10.92,8.75c1.05,0.08,1.91-0.09,2.41-0.47
						c0.57-0.44,1.04-1.36,1.53-2.34c0.82-1.65,1.84-3.69,4.11-4.69c0.65-0.29,1.31-0.44,1.9-0.58c0.26-0.06,0.61-0.14,0.84-0.22
						l0.1-0.16c-1.01-3.32-3-6.58-5.93-9.68c-3.13-3.32-6.98-6.1-10.34-8.45C486.06,62.72,483.9,61.34,481.95,61.34z"/>
				</g>
				<g>
					<path d="M477.98,60.29c0,0,15.08,13.35,22.45,27"/>
					<path class="st2" d="M498.23,88.49c-7.07-13.09-21.76-26.19-21.91-26.32l3.32-3.74c0.63,0.56,15.49,13.81,22.99,27.69
						L498.23,88.49z"/>
				</g>
				<g>
					<polyline points="498.4,69.07 506.97,63 513.94,72.3 					"/>
					<polygon class="st2" points="511.94,73.8 506.43,66.44 499.85,71.11 496.96,67.03 507.51,59.55 515.94,70.8 					"/>
				</g>
			</g>
			<g>
				<path d="M503.71,229.88c0,0,26.42-15.36,36.84-25.77s18.7-14.97,21.21-1.85c2.51,13.12,5.86,23.44,12.84,16.47
					s6.7-16.19,1.67-27.07c-5.02-10.88-0.41-15.35,15.84-18.7"/>
				<path class="st16" d="M504.97,232.04l-2.51-4.32c0.26-0.15,26.26-15.32,36.33-25.38c8.65-8.65,14.31-11.74,18.91-10.33
					c3.32,1.02,5.46,4.22,6.52,9.77c2.62,13.68,4.91,16.3,6.04,16.65c0.51,0.16,1.5-0.41,2.57-1.49c5.77-5.77,6.14-13.48,1.17-24.25
					c-2.46-5.33-2.81-9.38-1.12-12.75c2.24-4.43,7.66-7.17,18.72-9.45l1.01,4.9c-9.01,1.86-13.86,4.02-15.27,6.81
					c-0.6,1.19-1.13,3.36,1.19,8.4c5.89,12.76,5.18,22.53-2.18,29.88c-2.57,2.57-5.12,3.48-7.58,2.73
					c-4.9-1.51-7.34-9.28-9.48-20.49c-0.65-3.42-1.75-5.52-3.08-5.93c-1.68-0.52-5.46,0.64-13.91,9.08
					C531.79,216.4,506.06,231.41,504.97,232.04z"/>
			</g>
			<g>
				<path d="M524.92,152.02c0,0,14.79,26.51,26.23,20.93c11.44-5.58,8.37-38.79,0-40.19c-8.37-1.4-9.77,17.86,5.02,27.07"/>
				<path class="st2" d="M547.86,176.21c-4,0-9.34-2.29-16.01-9.99c-5.24-6.05-8.96-12.7-9.12-12.98l4.37-2.44
					c3.54,6.34,15.36,23.6,22.96,19.9c2.73-1.33,4.5-5.06,5.39-9.7l-0.59,0.95c-10.74-6.69-14.35-18.89-11.53-26.36
					c1.46-3.87,4.62-5.9,8.24-5.29c6.25,1.04,8.4,11.26,9.03,15.6c1.65,11.35-0.26,25.36-8.34,29.3
					C551.03,175.79,549.57,176.21,547.86,176.21z M550.31,135.19c-0.62,0-1.6,0.29-2.31,2.17c-1.75,4.62,0.17,13.59,8,19.34
					c0.24-3.3,0.12-6.8-0.36-10.08c-1.09-7.47-3.52-11.16-4.9-11.39C550.64,135.21,550.49,135.19,550.31,135.19z"/>
			</g>
			<path class="st16" d="M498.08,436.58l1.82-6.96c1.17-4.47,7.44-11.36,14.08-18.65c3.97-4.36,7.73-8.48,9.74-11.43
				c0.83-1.22,1.3-2.15,1.54-2.79c-0.64,0.3-1.52,0.87-2.47,1.83c-0.33,0.33-0.67,0.67-1.02,1.03c-3.35,3.42-7.93,8.13-13.41,7.48
				c-3.38-0.39-6.41-2.77-9.02-7.08c-1.9-3.14-2.29-6.22-1.17-9.17c3.18-8.33,17.81-12.82,30.71-16.79l2-0.61
				c6.55-2.02,8.44-12.62,8.88-21.15c0.5-9.86-0.84-19.27-0.85-19.36l-0.22-1.53l1.26-0.88c0.19-0.13,19.36-13.57,27.22-24.27
				c4.57-6.22,6.95-8.04,9.46-7.21c2.78,0.92,2.76,4.26,2.74,7.81l0,0.89c0,2.13,0.42,3.31,0.7,3.8c0.08-0.06,0.18-0.15,0.29-0.26
				c1.12-1.12,3.04-4.51,4.21-8.04c1.28-3.87,1.15-6.35,0.48-7.01l-1.07-1.07l0.45-1.45c0.63-2,6.36-19.66,14.11-23.51l2.22,4.48
				c-4.17,2.07-8.88,12.49-11.18,19.35c1.35,2.45,1.27,6.13-0.27,10.78c-1.33,4.03-3.56,8.14-5.42,10
				c-2.49,2.49-4.78,1.92-5.65,1.56c-2.47-1.02-3.88-4.17-3.88-8.63l0-0.91c0-0.45,0.01-1,0-1.56c-0.74,0.8-1.77,2.04-3.17,3.95
				c-7.23,9.85-22.63,21.28-27.14,24.53c0.37,3.16,1.11,10.75,0.7,18.81c-0.75,14.72-4.93,23.36-12.4,25.67l-2,0.62
				c-10.64,3.27-25.2,7.74-27.51,13.79c-0.35,0.93-0.66,2.43,0.77,4.8c1.76,2.92,3.55,4.5,5.31,4.7c3.04,0.35,6.64-3.33,9.26-6.01
				c0.37-0.37,0.72-0.73,1.06-1.07c3.52-3.52,7.45-4.57,9.79-2.64c1.34,1.11,2.96,3.87-1.19,9.95c-2.21,3.24-6.08,7.49-10.17,11.98
				c-1.37,1.5-2.83,3.1-4.25,4.71c14.19-9.89,15.99-9,17.16-8.42c0.98,0.49,1.59,1.49,1.59,2.61c0,1.91-1.41,3.81-3.37,6.45
				c-1.59,2.14-4.54,6.13-3.96,7.68c0.23,0.61,1.4,1.2,3.14,1.58l-1.06,4.89c-3.61-0.78-5.88-2.36-6.76-4.7
				c-1.32-3.51,0.99-7.4,3.41-10.77c-5.24,3.31-12.99,8.79-19.75,13.89L498.08,436.58z"/>
			<path class="st16" d="M601.71,241.19c-2.74,0-5.09-1-6.98-2.97c-5.99-6.23-5.42-20.78-5.18-27c0.03-0.75,0.05-1.33,0.05-1.71
				c0-1.53,0.65-2.83,1.82-3.64c2.77-1.92,7.67-0.33,9.1,0.2l-1.74,4.69l0.87-2.34l-0.87,2.34c-1.48-0.54-3.29-0.88-4.19-0.82
				c-0.01,0.4-0.03,0.9-0.05,1.48c-0.18,4.61-0.73,18.64,3.78,23.33c0.94,0.98,2.02,1.44,3.38,1.44V241.19z"/>
			<path class="st16" d="M482.97,468.03l-4.69-1.75l2.68-7.19c-2.11-0.3-4.02-1.44-5.12-2.4l-0.86-0.75v-1.14
				c0-2.19,1.86-7.8,18.88-13.23l2.4-4.81c-17.07,9.67-22.3,8.64-24.73,6.83c-1.66-1.23-2.36-3.27-1.98-5.7
				c-3.8-0.38-16.28,3.12-23.96,7.86c-1.48,0.91-1.87,1.48-1.96,1.65c0.14,0.35,0.81,1.07,1.22,1.51c1.17,1.25,2.76,2.96,2.5,5.32
				c-0.19,1.68-1.28,3.18-3.34,4.58c-8.12,5.51-40.01,8.23-43.62,8.52l-2.02,0.16l-0.58-1.95c-2.05-6.92-4.7-11-8.11-12.46
				c-4.38-1.88-10.33,0.32-18.5,4.49c-7.29,3.72-17.65,7.39-25.62,3.76c-4.46-2.03-7.46-6-8.91-11.8c-0.74-2.95-0.25-5.71,1.42-7.99
				c4.9-6.7,18.41-8.07,33.01-8.99c3.06-0.19,5.7-0.36,7.21-0.61c3.63-0.6,6.82-3.11,7.12-5.58c0.27-2.24-2.03-4.57-6.3-6.4
				c-14.43-6.18-21.13-21.6-21.41-22.25l4.6-1.96l-2.3,0.98l2.3-0.98c0.06,0.14,6.22,14.23,18.78,19.62
				c8.84,3.79,9.62,8.89,9.29,11.59c-0.57,4.75-5.31,8.92-11.26,9.91c-1.76,0.29-4.39,0.46-7.72,0.67
				c-8.87,0.56-25.37,1.59-29.29,6.95c-0.79,1.08-0.98,2.3-0.6,3.82c1.08,4.31,3.08,7.07,6.13,8.46c4.81,2.18,12.36,0.89,21.28-3.66
				c7.75-3.96,15.9-7.57,22.75-4.63c4.47,1.92,7.85,6.41,10.31,13.69c10.65-0.96,33.65-3.71,39.23-7.5
				c0.72-0.49,1.02-0.83,1.13-0.98c-0.19-0.35-0.77-0.98-1.14-1.37c-1.21-1.3-2.87-3.08-2.54-5.56c0.34-2.54,2.62-4.22,4.31-5.26
				c7.54-4.66,25.5-11.03,30.25-7.5c1.3,0.97,1.82,2.53,1.38,4.17c-0.24,0.89-0.13,1.33-0.09,1.4c0.02,0.02,3.9,2.6,26.49-11.46
				l7.52-4.68l-11.13,22.27l-1.02,0.32c-2.12,0.65-4.14,1.39-6,2.15L482.97,468.03z M480.53,453.81c0.85,0.38,1.93,0.59,2.72-0.2
				l4.07-4.07C484.02,451.11,481.57,452.67,480.53,453.81z M443.59,447.48L443.59,447.48L443.59,447.48z"/>
			<g>
				<path d="M294.13,490.81c0,0,25.4-7.81,27.07-3.91c1.67,3.91,5.05,6.7,17.6,3.91c12.54-2.79,16.45-3.91,6.12-9.21
					c-10.33-5.3,55.26-16.74,55.26-16.74s-0.42,7.12-2.23,8.93c-1.81,1.81-6.42,11.16,6.7,7.26c13.12-3.91,24.25-5.33,17.97,0.95
					s-25.78,7.15-25.78,7.15s-2.47,8.36,7.85,6.05"/>
				<path class="st16" d="M401.45,498.09c-2.44,0-4.33-0.71-5.64-2.11c-2.67-2.85-1.52-7.07-1.38-7.54l0.5-1.71l1.78-0.08
					c5.16-0.23,19.55-1.84,24.13-6.42c0.01-0.01,0.02-0.02,0.03-0.03c-2.33,0.06-7.09,0.74-15.51,3.24
					c-2.21,0.66-8.95,2.67-11.46-1.55c-2.14-3.58,0.97-8.56,2.28-9.87c0.39-0.46,0.84-2.13,1.15-4.12
					c-21,3.79-43.66,9.06-49.81,12.24c3.95,2.16,6.12,4.03,5.79,6.58c-0.45,3.52-4.97,4.53-13.97,6.53
					c-11.29,2.51-17.39,1.06-20.21-4.86c-2.81-0.73-14.56,1.82-24.27,4.81l-1.47-4.78c27.54-8.47,29.4-4.14,30.1-2.5
					c0.84,1.96,2.25,5.24,14.76,2.45c2.98-0.66,7.16-1.59,9.25-2.38c-0.68-0.48-1.82-1.18-3.72-2.16c-2.54-1.3-2.54-3.22-2.42-3.98
					c0.42-2.76,3.06-5.75,30.42-11.87c13.88-3.11,27.83-5.55,27.97-5.57l3.11-0.54l-0.19,3.15c-0.14,2.43-0.72,8.31-2.96,10.55
					c-0.77,0.77-1.79,3.12-1.52,3.79c0.01-0.01,0.29,0.15,1.15,0.15c0.86,0,2.29-0.17,4.58-0.85c19.77-5.89,21.61-2.81,22.49-1.33
					c1.64,2.75-1.13,5.52-2.04,6.44c-5.69,5.69-19.72,7.31-25.29,7.74c0.04,0.42,0.15,0.82,0.38,1.06c0.23,0.24,1.23,0.95,4.66,0.18
					l1.1,4.88C403.85,497.93,402.59,498.09,401.45,498.09z"/>
			</g>
			<path class="st2" d="M288.79,481.35c-2.59,0-5-0.57-7.05-1.69c-4.67-2.55-7.04-8.11-5.39-12.65c0.79-2.18,2.42-4.02,4.54-5.22
				c-3.3-1.25-6.09-3.86-7.3-7.24c-0.91-2.55-0.38-4.29,0.23-5.31c1.39-2.33,4.14-2.7,5.31-2.86c16.07-2.18,33.18,2.61,45.78,12.83
				c2.11,1.71,4.44,3.85,5.75,6.77c0.79,1.75,1.02,3.44,0.7,5c-0.7,3.36-3.86,5.75-8.45,6.41c-6.31,0.9-12.86-0.86-17.93-4.67
				c-2.12,3.99-6.45,6.58-10.19,7.71C292.72,481.04,290.7,481.35,288.79,481.35z M286.33,465.35c-0.53,0-1.08,0.08-1.62,0.23
				c-1.74,0.49-3.14,1.69-3.66,3.13c-0.88,2.43,0.88,5.36,3.08,6.56c3.22,1.76,7.15,0.98,9.2,0.36c3.7-1.12,7.58-3.9,7.92-7.59
				l0.5-5.57l3.81,4.09c4.18,4.49,10.55,6.73,16.62,5.87c1.92-0.27,3.99-1.15,4.26-2.48c0.1-0.5-0.02-1.17-0.37-1.93
				c-0.88-1.97-2.69-3.6-4.34-4.93c-8.88-7.2-20.22-11.46-31.68-12.14c0.99,1.59,1.64,3.41,1.85,5.27c0.21,1.91-0.2,3.44-1.22,4.54
				c-0.14,0.15-0.28,0.29-0.43,0.41c0.41,0.19,0.81,0.41,1.19,0.66c2.73,1.82,4.07,5.29,3.19,8.24c-0.51,1.7-1.81,3.18-3.49,3.96
				c-1.57,0.74-3.34,0.8-4.83,0.16c-0.77-0.33-1.38-0.78-1.86-1.15l3-4c0.3,0.22,0.61,0.46,0.82,0.55c0.19,0.08,0.47,0.05,0.75-0.09
				c0.4-0.19,0.72-0.53,0.82-0.87c0.26-0.85-0.27-2.04-1.17-2.64C288.04,465.56,287.22,465.35,286.33,465.35z M285.83,450.86
				c-2.02,0.04-4.04,0.19-6.04,0.46c-1.38,0.19-1.65,0.43-1.69,0.47c-0.01,0.05-0.04,0.41,0.19,1.06c1.14,3.19,5.03,5.33,8.33,4.58
				c0.16-0.04,0.26-0.07,0.34-0.09c0.01-0.11,0.02-0.3-0.01-0.59c-0.19-1.74-1.03-3.43-2.31-4.63L285.83,450.86z"/>
			<path class="st2" d="M482.89,425.55l-10.47-2.32c0.03-0.14,3.08-14.09,3.08-24.52c0-0.95-0.1-1.51-0.17-1.8
				c-1.08-0.15-3.6,0.24-5.16,0.49c-2.13,0.33-4.34,0.68-6.6,0.68c-4.35,0-6.96-1.8-8.38-3.3c-3.51-3.72-3.21-8.89-3.04-11.67
				c0.02-0.32,0.04-0.6,0.04-0.83h10.72c0,0.39-0.02,0.89-0.06,1.45c-0.05,0.78-0.16,2.76,0.12,3.58c0.12,0.02,0.32,0.04,0.6,0.04
				c1.43,0,3.14-0.27,4.94-0.55c4.62-0.73,9.87-1.55,13.88,1.89c2.55,2.18,3.84,5.55,3.84,10.02
				C486.22,410.33,483.02,424.93,482.89,425.55z"/>
			<g>
				<path class="st2" d="M587.92,282.32l-4.89-1.05c2.15-9.99,1.59-27.3-1.66-51.47c-0.3-2.22-0.35-2.64-0.35-2.99h5h-2.5l2.5-0.09
					c0.02,0.23,0.16,1.29,0.31,2.41C587.57,238.35,591.35,266.41,587.92,282.32z"/>
				<path class="st2" d="M567.18,269.89c-1.85,0-3-0.42-3.32-0.55l0.97-2.3l0.9-2.33c0.07,0.02,7.35,2.36,19.16-11.99l3.86,3.18
					C578.93,267.81,571.31,269.89,567.18,269.89z"/>
				<path class="st2" d="M578.17,284.04l-4.7-1.72c1.72-4.7,0.51-13.29-0.1-16.21l4.89-1.03
					C578.37,265.57,580.73,277.03,578.17,284.04z"/>
				<path class="st2" d="M574.57,259.3c-0.98,0-1.99-0.27-3-0.83c-2.35-1.3-3.93-3.31-4.56-5.82c-1.59-6.32,3.12-13.9,3.67-14.74
					l0.34-0.53l0.56-0.31c2.78-1.52,5.57-1.06,7.46,1.24c3.45,4.18,3.33,14.57-0.21,18.85C577.65,258.57,576.16,259.3,574.57,259.3z
					 M574.52,241.22c-1.28,2.21-3.48,6.97-2.66,10.22c0.3,1.18,0.98,2.03,2.13,2.66c0.61,0.33,0.69,0.24,0.99-0.13
					c2.02-2.43,2.14-10.12,0.21-12.47C575,241.27,574.88,241.11,574.52,241.22z"/>
				
					<rect x="569.37" y="232.28" transform="matrix(0.9668 -0.2555 0.2555 0.9668 -41.277 153.9717)" class="st2" width="5" height="7.1"/>
				
					<rect x="345.57" y="491.49" transform="matrix(0.9732 -0.2301 0.2301 0.9732 -104.2107 94.3714)" class="st2" width="13.89" height="5"/>
				<path class="st2" d="M436.02,478.75l-4.53-2.12c0.46-0.98,4.65-9.59,11.14-10.71c5.54-0.96,8.64-0.97,8.77-0.97h2.98l-0.63,3.6
					l2.8-1.14l1.29-3.44l4.68,1.76l-2.06,5.49l-13.2,5.37l1.13-6.43c-1.27,0.13-2.91,0.34-4.9,0.69
					C440.13,471.43,436.89,476.89,436.02,478.75z"/>
				<path class="st2" d="M469.28,468.31l-4.44-2.3c1.43-2.77,2.44-6.27,2.12-7.32c-1.21-0.29-5.17,0.94-8.42,2.63l-2.31-4.43
					c3.17-1.65,10.92-5.13,14.27-1.78C473.95,458.53,470.43,466.08,469.28,468.31z M467.1,458.72L467.1,458.72L467.1,458.72z"/>
				<path class="st2" d="M548.32,359.19l3.05-7.13c4.96-11.6,10-17.33,15.41-17.53c4.36-0.18,7.41,3.47,8.53,5.64l1.08,2.08
					L548.32,359.19z M567.05,339.53c-0.03,0-0.07,0-0.1,0c-1.11,0.05-3.67,0.94-7.23,6.95l9.7-5.85
					C568.77,340.03,567.96,339.53,567.05,339.53z"/>
				<path class="st2" d="M553.41,384.87c-1.42,0-2.37-0.54-2.91-0.97c-1.38-1.12-1.94-2.98-1.51-5.12c0.76-3.86,4.7-8.69,11.78-11
					c0.83-2.59,1.6-5.4,2.25-8.24l-8.09,4.77l-2.54-4.31l17.6-10.38l-0.94,5.34c-0.75,4.29-4.9,25.87-12.63,29.21
					C555.25,384.68,554.25,384.87,553.41,384.87z M558.2,374.49c-2.88,1.9-4.12,4.19-4.33,5.31c0.15-0.04,0.34-0.11,0.57-0.21
					C555.64,379.07,556.94,377.19,558.2,374.49z"/>
			</g>
			<g>
				<g>
					<polygon class="st2" points="381.19,226.42 357.24,183.35 366.84,178.01 382.81,206.71 388.36,190.01 394.33,188.37 
						407.31,199.63 404.86,167.83 415.82,166.99 419.61,216.14 411.98,218.22 395.35,203.81 388.49,224.43 					"/>
					
						<rect x="350" y="176.67" transform="matrix(0.8811 -0.4729 0.4729 0.8811 -43.0099 193.2498)" class="st2" width="25.71" height="10.99"/>
					
						<rect x="396.03" y="161.01" transform="matrix(0.9932 -0.116 0.116 0.9932 -16.5547 48.6555)" class="st2" width="27.09" height="10.99"/>
					
						<rect x="373.76" y="219.44" transform="matrix(0.9678 -0.2516 0.2516 0.9678 -44.2204 104.0693)" class="st2" width="22.09" height="10.99"/>
					
						<rect x="404.97" y="210.78" transform="matrix(0.9127 -0.4086 0.4086 0.9127 -52.0707 188.8227)" class="st2" width="21.81" height="10.99"/>
				</g>
				
					<rect x="422.93" y="176.64" transform="matrix(0.8552 -0.5183 0.5183 0.8552 -30.6339 248.4879)" class="st2" width="12.98" height="4.86"/>
				
					<rect x="427.51" y="187.92" transform="matrix(0.9741 -0.226 0.226 0.9741 -31.8245 102.742)" class="st2" width="10.47" height="4.86"/>
				
					<rect x="430.92" y="196.65" transform="matrix(0.3404 -0.9403 0.9403 0.3404 95.5352 540.9422)" class="st2" width="4.86" height="11.45"/>
				
					<rect x="351.15" y="199.17" transform="matrix(0.1401 -0.9901 0.9901 0.1401 100.4039 526.9199)" class="st2" width="4.86" height="12.97"/>
				
					<rect x="349.73" y="213.98" transform="matrix(0.9467 -0.3221 0.3221 0.9467 -50.7749 125.9814)" class="st2" width="11.09" height="4.86"/>
				
					<rect x="354.3" y="225.01" transform="matrix(0.6857 -0.7279 0.7279 0.6857 -51.9909 334.4859)" class="st2" width="14.01" height="4.86"/>
			</g>
			
				<rect x="246.75" y="220.14" transform="matrix(0.6067 -0.7949 0.7949 0.6067 -78.0124 287.4515)" class="st2" width="9.51" height="4.86"/>
			
				<rect x="254.95" y="229.66" transform="matrix(0.9147 -0.4041 0.4041 0.9147 -71.6708 124.5799)" class="st2" width="8.75" height="4.86"/>
			
				<rect x="259.24" y="240.48" transform="matrix(0.9813 -0.1926 0.1926 0.9813 -41.8596 55.296)" class="st2" width="8.38" height="4.86"/>
			
				<rect x="262.84" y="251.67" transform="matrix(0.1413 -0.99 0.99 0.1413 -25.9283 482.6637)" class="st2" width="4.86" height="9.21"/>
			
				<rect x="202.48" y="215.44" transform="matrix(0.8105 -0.5858 0.5858 0.8105 -90.3506 161.8239)" class="st2" width="4.86" height="10.19"/>
			
				<rect x="193.54" y="224.84" transform="matrix(0.4234 -0.9059 0.9059 0.4234 -94.788 309.7809)" class="st2" width="4.86" height="9.04"/>
			
				<rect x="189.82" y="236.47" transform="matrix(0.2296 -0.9733 0.9733 0.2296 -86.4996 372.8304)" class="st2" width="4.86" height="9.18"/>
			
				<rect x="184.51" y="253.83" transform="matrix(0.9334 -0.3587 0.3587 0.9334 -79.3493 84.8558)" class="st2" width="8.97" height="4.86"/>
			<path class="st16" d="M293.47,499.92c-59.76-16.35-107.72-42.56-142.55-77.92c-27.92-28.34-47.49-62.55-58.18-101.68
				c-18.17-66.54-4.07-125.15-3.92-125.74l4.85,1.2c-0.14,0.57-13.95,58.09,3.95,123.42c10.48,38.26,29.65,71.7,56.96,99.39
				c34.2,34.67,81.37,60.41,140.21,76.51L293.47,499.92z"/>
		</g>
		<rect x="556.04" y="55.9" transform="matrix(0.4227 -0.9063 0.9063 0.4227 273.2548 550.5292)" width="25.42" height="9.75"/>
		<rect x="583.26" y="84.4" transform="matrix(0.8388 -0.5444 0.5444 0.8388 47.3292 338.4079)" width="23.74" height="9.75"/>
		<rect x="605.86" y="125.12" transform="matrix(0.9677 -0.2523 0.2523 0.9677 -12.8549 159.7396)" width="21.34" height="9.75"/>
		<rect x="616.47" y="166.96" transform="matrix(0.9946 -0.1033 0.1033 0.9946 -14.3979 65.7355)" width="21.6" height="9.75"/>
		<rect x="623.49" y="216.19" transform="matrix(0.9989 -0.0471 0.0471 0.9989 -9.6985 30.1069)" width="22.35" height="9.75"/>
		<rect x="630.91" y="254.48" transform="matrix(0.0473 -0.9989 0.9989 0.0473 340.9191 887.6384)" width="9.76" height="21.23"/>
		<rect x="625.05" y="296.22" transform="matrix(0.2017 -0.9794 0.9794 0.2017 201.8618 862.3206)" width="9.75" height="22.22"/>
		<rect x="611.86" y="334.37" transform="matrix(0.4287 -0.9035 0.9035 0.4287 39.7288 754.8935)" width="9.75" height="23.32"/>
		<rect x="597.53" y="374.39" transform="matrix(0.6326 -0.7745 0.7745 0.6326 -79.1226 609.0832)" width="9.75" height="27.08"/>
		<rect x="575.51" y="406.24" transform="matrix(0.6394 -0.7689 0.7689 0.6394 -111.5742 596.7236)" width="9.75" height="22.15"/>
		<rect x="551.49" y="438.01" transform="matrix(0.7732 -0.6342 0.6342 0.7732 -160.0423 455.2055)" width="9.75" height="26.67"/>
		<rect x="526.64" y="459.55" transform="matrix(0.8152 -0.5792 0.5792 0.8152 -174.5385 394.9002)" width="9.75" height="22.77"/>
		<rect x="491.75" y="478.81" transform="matrix(0.8831 -0.4692 0.4692 0.8831 -172.2904 290.4432)" width="9.75" height="24.23"/>
		<rect x="454.32" y="494.68" transform="matrix(0.913 -0.4079 0.4079 0.913 -166.0818 231.214)" width="9.75" height="20.83"/>
		<rect x="160.43" y="17.23" transform="matrix(0.8089 -0.588 0.588 0.8089 14.3625 102.7926)" width="9.75" height="24.15"/>
		<rect x="128" y="32.74" transform="matrix(0.6477 -0.7619 0.7619 0.6477 13.0034 116.8678)" width="9.75" height="23.26"/>
		<rect x="103.01" y="62.89" transform="matrix(0.5651 -0.825 0.825 0.5651 -13.9935 121.1256)" width="9.75" height="21.9"/>
		<rect x="80.02" y="87.72" transform="matrix(0.4388 -0.8986 0.8986 0.4388 -44.018 133.5411)" width="9.75" height="28.57"/>
		<rect x="66.35" y="121.68" transform="matrix(0.3306 -0.9438 0.9438 0.3306 -80.8315 158.3665)" width="9.75" height="28.98"/>
		<rect x="53.09" y="164.28" transform="matrix(0.0917 -0.9958 0.9958 0.0917 -124.1872 219.0402)" width="9.75" height="26.62"/>
		<rect x="46.26" y="204.89" transform="matrix(0.0165 -0.9999 0.9999 0.0165 -170.4841 268.284)" width="9.75" height="31.82"/>
		<rect x="38.58" y="259.72" width="22.88" height="9.75"/>
		<rect x="43.56" y="299.4" transform="matrix(0.9539 -0.3001 0.3001 0.9539 -88.7241 30.9678)" width="25.75" height="9.75"/>
		<rect x="55.88" y="339.15" transform="matrix(0.8361 -0.5486 0.5486 0.8361 -177.4785 94.0464)" width="25.53" height="9.76"/>
		<rect x="75.58" y="378.74" transform="matrix(0.7112 -0.703 0.703 0.7112 -244.1096 173.023)" width="25.9" height="9.75"/>
		<rect x="97.5" y="417.33" transform="matrix(0.6677 -0.7444 0.7444 0.6677 -277.5505 222.6176)" width="26.19" height="9.76"/>
		<rect x="129.34" y="445.73" transform="matrix(0.55 -0.8351 0.8351 0.55 -312.1695 321.8307)" width="26.46" height="9.75"/>
		<rect x="165.38" y="470.62" transform="matrix(0.3921 -0.9199 0.9199 0.3921 -329.8586 451.8389)" width="23.13" height="9.75"/>
		<rect x="200.63" y="490.18" transform="matrix(0.4053 -0.9142 0.9142 0.4053 -326.7287 487.8527)" width="21.96" height="9.75"/>
		<rect x="243.16" y="504.91" transform="matrix(0.2914 -0.9566 0.9566 0.2914 -309.31 602.0232)" width="17.07" height="9.75"/>
		<path class="st2" d="M310.25,261.54c0.34-1.86,1.66-3.56,3.39-4.64c1.73-1.09,3.86-1.66,6.11-1.45c2.09,0.6,3.89,1.8,5.3,3.24
			c1.42,1.44,2.5,3.13,3.28,4.9c1.56,3.56,2,7.31,2.46,10.98c-0.97-3.57-1.97-7.2-3.87-10.24c-1.85-2.99-4.76-5.38-7.86-5.77
			c-1.38-0.58-3.11-0.68-4.74-0.22C312.69,258.8,311.11,259.85,310.25,261.54z"/>
		<path class="st2" d="M365.46,387.51c-3.02-2.47-5.17-6.39-5.31-10.8c0.67-4.35,3.42-8.12,7.11-10.04
			c1.86-0.97,3.89-1.36,5.85-1.47c1.98-0.1,3.92,0.06,5.85,0.22c-1.94,0.1-3.88,0.21-5.75,0.57c-1.87,0.36-3.66,0.99-5.13,2.04
			c-2.95,2.09-4.73,5.6-4.76,8.97C362.48,380.33,363.21,384.32,365.46,387.51z"/>
		<path class="st2" d="M457.48,173.01c-0.5,3.27,1.12,6.36,3.34,7.93c1.57,2.11,4.67,3.43,7.3,2.23c1.32-0.56,2.45-1.69,3.38-2.97
			c0.94-1.28,1.69-2.73,2.4-4.19c-0.47,1.56-0.97,3.12-1.72,4.61c-0.75,1.47-1.75,2.95-3.29,3.95c-0.77,0.49-1.64,0.87-2.57,1.04
			c-0.93,0.17-1.88,0.17-2.8,0.02c-1.84-0.28-3.62-1.2-5.02-2.49C456.28,180,455.94,175.96,457.48,173.01z"/>
		<path class="st2" d="M187,339.39c-0.74,1.76-2.37,3.25-4.46,3.81c-2.1,0.55-4.51,0.08-6.4-1.38c-0.82-0.88-1.38-1.94-1.72-2.94
			c-0.36-1.01-0.55-1.98-0.73-2.96c-0.33-1.96-0.43-3.94-0.3-5.89c0.27-3.9,1.44-7.66,3.39-10.9c-1.48,3.48-2.06,7.26-1.8,10.9
			c0.14,1.82,0.49,3.61,1.03,5.32c0.56,1.72,1.27,3.36,2.35,4.17c0.81,1.17,2.32,2.05,3.97,2.09
			C183.98,341.66,185.8,340.87,187,339.39z"/>
		<path class="st2" d="M147.62,253.52c-1.17-1.89-1.97-4.07-2.3-6.37c-0.16-1.17-0.23-2.3-0.11-3.56c0.14-1.23,0.46-2.57,1.48-3.81
			c0.58-0.54,1.35-0.96,2.13-1.13c0.79-0.19,1.6-0.15,2.29,0.02c1.39,0.35,2.4,1.01,3.35,1.58c0.96,0.59,1.77,1.07,2.72,1.36
			c0.94,0.29,1.95,0.43,2.97,0.39c2.03-0.07,4.07-0.86,5.62-2.32c1.55-1.44,2.65-3.45,2.94-5.65c-0.02,2.21-0.88,4.44-2.37,6.2
			c-1.48,1.77-3.67,2.99-6.03,3.35c-4.76,1.31-10.04-4.04-11.38-1.53c-0.54,0.34-1.06,1.14-1.39,2.05c-0.32,0.9-0.53,1.98-0.64,3.02
			C146.71,249.21,146.93,251.41,147.62,253.52z"/>
		<path class="st2" d="M316.61,146.16c-2.35-3.08-3.33-7.5-2.12-11.73c1.94-3.89,5.63-6.68,9.65-7.45c4.03-0.78,7.9,0.02,11.65,0.78
			c-3.81-0.25-7.76-0.45-11.23,0.76c-3.43,1.17-6.08,3.97-7.14,7.16C315.63,138.52,315.19,142.55,316.61,146.16z"/>
		<path class="st2" d="M520.37,232.97c2.04-0.14,3.58-1.39,5.11-2.61c1.55-1.23,3.04-2.53,4.49-3.86
			c6.7-4.01,12.92-8.95,18.42-14.68c-4.69,6.42-10.28,12.26-16.6,17.3c-1.81,0.93-3.64,1.81-5.49,2.61
			c-0.92,0.4-1.88,0.81-2.88,1.08C522.42,233.07,521.36,233.18,520.37,232.97z"/>
		<path class="st2" d="M541.58,292.07c-0.89,0.2-1.56,0.79-2.03,1.47c-0.47,0.69-0.78,1.47-0.98,2.27c-0.39,1.63-0.46,3.34-0.3,4.95
			c-0.44,3.21,0.11,6.65,1.56,9.75c1.46,3.11,3.74,5.89,6.51,8.13c-3.07-1.8-5.84-4.26-7.9-7.35c-2.05-3.08-3.3-6.82-3.36-10.71
			c0.39-1.93,1.04-3.75,2.01-5.4c0.5-0.83,1.12-1.6,1.87-2.2C539.72,292.38,540.68,292,541.58,292.07z"/>
		<path class="st2" d="M407.37,456.83c-2-3.41-4.28-6.71-7.15-8.99c-2.26-2.8-5.46-5.01-9.17-5.32c-3.74-0.34-7.6,0.93-11.29,2.21
			c3.49-1.75,7.11-3.59,11.32-3.81c2.08-0.09,4.24,0.33,6.19,1.19c1.95,0.86,3.72,2.09,5.27,3.54
			C405.06,449.15,406.33,453.02,407.37,456.83z"/>
		<path class="st2" d="M279.86,314.95c3.77-3.24,7.94-6.15,12.48-8.47c9.63-3.25,19.9-4.13,29.71-2.72
			c-9.91-0.34-19.76,1.63-28.54,5.69C288.8,310.68,284.24,312.58,279.86,314.95z"/>
		<path class="st2" d="M440.13,97.7c2.6,3.3,5.35,6.44,8.23,9.42c1.14,1.74,2.23,3.44,3.56,4.81c1.32,1.36,2.97,2.34,4.88,2.79
			c3.77,0.92,8.25-0.12,11.1-3.23c-2.42,3.46-6.96,5.29-11.37,4.8c-2.21-0.2-4.44-1.15-6.21-2.57c-1.78-1.42-3.16-3.11-4.52-4.69
			C443.71,105.33,441.82,101.54,440.13,97.7z"/>
		<path class="st2" d="M396.66,410.23c4.71-0.42,9.32-1.26,13.73-2.62c9.13-1.07,18.11-4.13,26.21-8.9
			c-7.51,5.66-16.28,9.84-25.64,12.04C406.14,411.11,401.33,410.87,396.66,410.23z"/>
		<path class="st2" d="M377.71,313.52c1.76-2.08,4.38-3.43,7.15-4.02c2.79-0.59,5.71-0.44,8.5,0.04c2.67,0.88,5.22,1.93,7.67,3.37
			c2.44,1.44,4.59,3.31,6.38,5.44c3.55,4.28,5.64,9.65,5.8,15.05c-0.69-5.36-3.27-10.31-6.97-13.97c-1.87-1.82-4-3.32-6.32-4.4
			c-2.32-1.07-4.87-1.84-7.38-2.4c-2.4-0.92-4.91-1.56-7.48-1.53C382.5,311.13,379.85,311.84,377.71,313.52z"/>
		
			<rect x="484.93" y="279.81" transform="matrix(0.5996 -0.8003 0.8003 0.5996 -29.2902 505.9338)" class="st2" width="12.1" height="4.86"/>
		
			<rect x="491.72" y="291.65" transform="matrix(0.9304 -0.3667 0.3667 0.9304 -73.2007 202.7945)" class="st2" width="10.98" height="4.86"/>
		
			<rect x="496.17" y="300.98" transform="matrix(0.2143 -0.9768 0.9768 0.2143 92.6459 727.5936)" class="st2" width="4.86" height="10.46"/>
		
			<rect x="420.22" y="292.35" transform="matrix(0.1719 -0.9851 0.9851 0.1719 55.2058 664.1328)" class="st2" width="4.86" height="13.76"/>
		
			<rect x="418.82" y="309.08" transform="matrix(0.9693 -0.2458 0.2458 0.9693 -63.5456 113.8024)" class="st2" width="10.77" height="4.86"/>
		
			<rect x="422.53" y="320.95" transform="matrix(0.7324 -0.6809 0.6809 0.7324 -105.4381 378.4951)" class="st2" width="12.48" height="4.86"/>
		
			<rect x="299.3" y="343.88" transform="matrix(0.69 -0.7238 0.7238 0.69 -156.2303 327.8308)" class="st2" width="10.63" height="4.86"/>
		
			<rect x="305.52" y="354.83" transform="matrix(0.9694 -0.2457 0.2457 0.9694 -78.242 87.2741)" class="st2" width="10.36" height="4.86"/>
		
			<rect x="309.42" y="367.7" transform="matrix(0.9695 -0.2453 0.2453 0.9695 -81.16 88.5823)" class="st2" width="11.28" height="4.86"/>
		
			<rect x="313.72" y="377.24" transform="matrix(0.4161 -0.9093 0.9093 0.4161 -164.3293 511.5178)" class="st2" width="4.86" height="12.97"/>
		
			<rect x="442.14" y="418.98" transform="matrix(0.8247 -0.5656 0.5656 0.8247 -161.4274 325.6671)" class="st2" width="4.86" height="8.46"/>
		
			<rect x="432.88" y="426.82" transform="matrix(0.4831 -0.8756 0.8756 0.4831 -152.7367 604.1763)" class="st2" width="4.86" height="9.24"/>
		
			<rect x="424.14" y="441.63" transform="matrix(0.9868 -0.1617 0.1617 0.9868 -66.143 75.1895)" class="st2" width="9.68" height="4.86"/>
		<path class="st2" d="M328.46,448.47c-0.87-3.69-0.63-7.81,0.83-11.63c1.06-1.74,2.41-3.28,3.91-4.61c1.53-1.3,3.21-2.38,5.02-3.15
			c3.58-1.59,7.56-2.06,11.27-1.42c-3.76-0.11-7.47,0.92-10.53,2.83c-1.54,0.94-2.9,2.13-4.07,3.44c-1.14,1.34-2.09,2.82-2.78,4.41
			C329.99,441.13,328.65,444.68,328.46,448.47z"/>
		<path d="M243.21,199.79c-3.83-4.09-5.34-10.39-3.96-16.27c1.07-2.82,2.82-5.4,5.14-7.3c2.29-1.9,4.98-3.14,7.71-3.94
			c5.53-1.59,11.17-1.32,16.68-1.07c-5.51,0.27-11.14,0.58-16.16,2.58c-2.49,0.99-4.8,2.38-6.62,4.21c-1.81,1.8-3.04,4.1-3.71,6.52
			C240.21,189.11,240.24,195.04,243.21,199.79z"/>
		<path d="M258.35,125.76c0.27,2.7,0.87,5.38,2.13,7.63c1.23,2.23,3.18,4.01,5.33,4.68c1.9,1.07,4.55,0.94,7.24,0.85
			c2.67-0.12,5.34-0.36,8-0.74c5.31-0.77,10.58-2.07,15.68-3.89c-4.9,2.32-10.06,4.15-15.38,5.46c-2.66,0.65-5.36,1.17-8.08,1.56
			c-1.37,0.17-2.71,0.38-4.19,0.42c-1.45,0.05-3.08-0.13-4.58-0.75c-2.82-1.59-4.6-4.23-5.48-6.96
			C258.12,131.27,258.09,128.46,258.35,125.76z"/>
		<rect x="227.01" y="113.74" transform="matrix(0.6102 -0.7923 0.7923 0.6102 -4.6355 228.0645)" width="4.86" height="10"/>
		<rect x="238.31" y="105.88" transform="matrix(0.8471 -0.5314 0.5314 0.8471 -22.2849 144.92)" width="4.86" height="10.62"/>
		<rect x="251.89" y="101.04" width="4.86" height="8.91"/>
		<rect x="262.84" y="102.36" transform="matrix(0.3772 -0.9261 0.9261 0.3772 70.1187 313.851)" width="11.15" height="4.86"/>
		<rect x="273.33" y="110.39" transform="matrix(0.8488 -0.5287 0.5287 0.8488 -17.5022 164.4451)" width="10.85" height="4.86"/>
		<path class="st3" d="M237.77,84.95l-5.99-0.41c0.82-11.8,7.04-22.23,16.26-27.24c5.07-2.75,10.93-3.56,16.38-2.66
			c3.13-13.91,14.5-26.6,29.89-32.52c13.9-5.33,30.33-5.89,51.73-1.75c10.15,1.96,21.47,5.14,28.57,13.8l-4.64,3.8
			c-5.89-7.18-15.98-9.95-25.07-11.71c-20.25-3.92-35.64-3.45-48.44,1.46c-13.68,5.26-23.73,16.46-26.28,28.58
			c3.51,1.5,6.59,3.8,8.83,6.83c1.94,2.62,2.64,5.17,2.09,7.56c-0.53,2.3-2.22,4.11-4.63,4.95c-2.83,0.99-6.11,0.46-8.36-1.33
			c-2.93-2.34-4.46-6.17-4.56-11.38c-0.01-0.78,0-1.56,0.04-2.34c-4.22-0.73-8.8-0.13-12.69,1.98
			C243.59,66.54,238.43,75.33,237.77,84.95z M269.55,62.67c0,0.05,0,0.1,0,0.14c0.04,2.3,0.48,5.34,2.31,6.8
			c0.63,0.5,1.76,0.66,2.64,0.35c0.3-0.11,0.68-0.3,0.75-0.62c0.13-0.58-0.25-1.55-1.07-2.65C272.97,65.05,271.38,63.7,269.55,62.67
			z"/>
	</g>
</g>
<g id="NAZAR_BG">
</g>
<g id="NAZAR_COLORS">
</g>
<g id="NAZAR">
</g>
<g id="WIKIQUOTE_BG">
</g>
<g id="WIKIQUOTE_FARBE">
</g>
<g id="WIKIQUOTE">
</g>
<g id="WIKIVOYAGE_BG">
</g>
<g id="WIKIVOYAGE_FARBE_1_">
</g>
<g id="WIKIVOYAGE_1_">
</g>
<g id="HAMSA_BG">
</g>
<g id="HAMSA_FARBE">
</g>
<g id="HAMSA">
</g>
<g id="WWW">
</g>
<g id="FOTO_1_">
</g>
<g id="HUMAN_FIGURE">
</g>
<g id="GLASSES">
</g>
<g id="KINTSUGI">
</g>
<g id="RANGOLI">
</g>
<g id="HENNA">
</g>
<g id="BASKETBALL">
	<g id="Ebene_42">
	</g>
</g>
<g id="RUG">
</g>
<g id="KAABA">
</g>
<g id="WIKINEWS">
</g>
<g id="COMMONS">
</g>
<g id="BIWA">
</g>
<g id="_x2B_">
</g>
<g id="IBIS_OF_THOTH">
</g>
<g id="SERPENT">
</g>
<g id="TREE_BG_1_">
</g>
<g id="TREE_FARBEN">
</g>
<g id="TREE_1_">
</g>
<g id="BAPHO_BG_1_">
</g>
<g id="BAPHO_FARBE">
</g>
<g id="BAPHO">
</g>
<g id="SALAM_BG">
</g>
<g id="SALAM_FARBE">
</g>
<g id="SALAM">
</g>
<g id="PAINTING_EASLE_BG">
</g>
<g id="PAINTING_EASLE_FARBE">
</g>
<g id="PAINTING_EASLE_FARBEN">
</g>
<g id="WHEAT_BG">
</g>
<g id="WHEAT_FARBE">
</g>
<g id="WHEAT">
</g>
<g id="SMILE_BG">
</g>
<g id="SMILE_FARBE">
</g>
<g id="SMILE">
</g>
<g id="WIFI_BG">
</g>
<g id="Layer_142">
</g>
<g id="WIFI_FARBE">
</g>
<g id="WIFI">
</g>
<g id="WIND">
</g>
<g id="CHIC_x40_S_1_">
</g>
<g id="ESC">
</g>
<g id="SPRAYCAN_1_">
</g>
<g id="PACHAMAMA">
</g>
<g id="THUNDERBIRD">
</g>
<g id="MARSHA">
</g>
<g id="ARROW">
</g>
<g id="WKTK">
</g>
<g id="psst">
</g>
<g id="WIKIPEDIA">
</g>
<g id="WIKTIONARY_1_">
</g>
<g id="WIKIDATA_1_">
</g>
<g id="RAVEN">
</g>
<g id="OWL_ATHENA">
</g>
<g id="GHYAMA">
</g>
<g id="Ebene_170">
</g>
<g id="BRAILLE">
</g>
<g id="EYE_OF_HORUS">
</g>
<g id="PARTY_ELEMENT">
</g>
<g id="CAKE">
</g>
<g id="PAPERPLANE">
</g>
<g id="INCUBATOR_1_">
</g>
<g id="_x3D_">
</g>
<g id="COLOR_PALETTE">
</g>
<g id="TAGS">
</g>
</svg>
